<?xml version="1.0" encoding="UTF-8"?>
<svg id="Layer_1" data-name="Layer 1" xmlns="http://www.w3.org/2000/svg" xmlns:xlink="http://www.w3.org/1999/xlink" viewBox="0 0 600 600">
  <defs>
    <style>
      .cls-1 {
        filter: url(#drop-shadow-1);
      }

      .cls-2 {
        filter: url(#drop-shadow-3);
      }

      .cls-3 {
        filter: url(#drop-shadow-2);
      }

      .cls-4 {
        filter: url(#drop-shadow-9);
      }

      .cls-5 {
        filter: url(#drop-shadow-6);
      }

      .cls-6 {
        filter: url(#drop-shadow-7);
      }

      .cls-7 {
        filter: url(#drop-shadow-8);
      }

      .cls-8 {
        filter: url(#drop-shadow-5);
      }

      .cls-9 {
        filter: url(#drop-shadow-4);
      }

      .cls-10 {
        fill: #6c68af;
      }

      .cls-11 {
        fill: url(#linear-gradient);
      }

      .cls-12 {
        filter: url(#drop-shadow-22);
      }

      .cls-13 {
        filter: url(#drop-shadow-20);
      }

      .cls-14 {
        filter: url(#drop-shadow-21);
      }

      .cls-15 {
        filter: url(#drop-shadow-13);
      }

      .cls-16 {
        filter: url(#drop-shadow-16);
      }

      .cls-17 {
        filter: url(#drop-shadow-19);
      }

      .cls-18 {
        filter: url(#drop-shadow-14);
      }

      .cls-19 {
        filter: url(#drop-shadow-18);
      }

      .cls-20 {
        filter: url(#drop-shadow-17);
      }

      .cls-21 {
        filter: url(#drop-shadow-12);
      }

      .cls-22 {
        filter: url(#drop-shadow-11);
      }

      .cls-23 {
        filter: url(#drop-shadow-10);
      }

      .cls-24 {
        filter: url(#drop-shadow-15);
      }

      .cls-25 {
        fill: #a46a3d;
      }

      .cls-26 {
        fill: #31295c;
      }

      .cls-27 {
        fill: #4c4a8a;
      }

      .cls-28 {
        fill: #6a93cd;
      }

      .cls-29 {
        fill: #502916;
      }

      .cls-30 {
        fill: #102546;
      }

      .cls-31 {
        fill: #171631;
      }

      .cls-32 {
        fill: #7f62aa;
      }
    </style>
    <linearGradient id="linear-gradient" x1="225.25" y1="492.14" x2="367.62" y2="492.14" gradientUnits="userSpaceOnUse">
      <stop offset="0" stop-color="#63401b"/>
      <stop offset="1" stop-color="#442917"/>
    </linearGradient>
    <filter id="drop-shadow-1" x="237" y="395.88" width="152.64" height="137.76" filterUnits="userSpaceOnUse">
      <feOffset dx="7" dy="7"/>
      <feGaussianBlur result="blur" stdDeviation="5"/>
      <feFlood flood-color="#231f20" flood-opacity=".75"/>
      <feComposite in2="blur" operator="in"/>
      <feComposite in="SourceGraphic"/>
    </filter>
    <filter id="drop-shadow-2" x="268.68" y="403.56" width="102" height="104.16" filterUnits="userSpaceOnUse">
      <feOffset dx="7" dy="7"/>
      <feGaussianBlur result="blur-2" stdDeviation="5"/>
      <feFlood flood-color="#231f20" flood-opacity=".75"/>
      <feComposite in2="blur-2" operator="in"/>
      <feComposite in="SourceGraphic"/>
    </filter>
    <filter id="drop-shadow-3" x="61.56" y="403.8" width="490.08" height="111.36" filterUnits="userSpaceOnUse">
      <feOffset dx="7" dy="7"/>
      <feGaussianBlur result="blur-3" stdDeviation="5"/>
      <feFlood flood-color="#231f20" flood-opacity=".75"/>
      <feComposite in2="blur-3" operator="in"/>
      <feComposite in="SourceGraphic"/>
    </filter>
    <filter id="drop-shadow-4" x="95.16" y="370.44" width="417.12" height="112.56" filterUnits="userSpaceOnUse">
      <feOffset dx="7" dy="7"/>
      <feGaussianBlur result="blur-4" stdDeviation="5"/>
      <feFlood flood-color="#231f20" flood-opacity=".75"/>
      <feComposite in2="blur-4" operator="in"/>
      <feComposite in="SourceGraphic"/>
    </filter>
    <filter id="drop-shadow-5" x="101.16" y="328.2" width="403.68" height="106.08" filterUnits="userSpaceOnUse">
      <feOffset dx="7" dy="7"/>
      <feGaussianBlur result="blur-5" stdDeviation="5"/>
      <feFlood flood-color="#231f20" flood-opacity=".75"/>
      <feComposite in2="blur-5" operator="in"/>
      <feComposite in="SourceGraphic"/>
    </filter>
    <filter id="drop-shadow-6" x="150.84" y="321.24" width="95.76" height="74.64" filterUnits="userSpaceOnUse">
      <feOffset dx="7" dy="7"/>
      <feGaussianBlur result="blur-6" stdDeviation="5"/>
      <feFlood flood-color="#231f20" flood-opacity=".75"/>
      <feComposite in2="blur-6" operator="in"/>
      <feComposite in="SourceGraphic"/>
    </filter>
    <filter id="drop-shadow-7" x="366.12" y="317.4" width="105.84" height="59.28" filterUnits="userSpaceOnUse">
      <feOffset dx="7" dy="7"/>
      <feGaussianBlur result="blur-7" stdDeviation="5"/>
      <feFlood flood-color="#231f20" flood-opacity=".75"/>
      <feComposite in2="blur-7" operator="in"/>
      <feComposite in="SourceGraphic"/>
    </filter>
    <filter id="drop-shadow-8" x="108.12" y="261.24" width="372" height="172.32" filterUnits="userSpaceOnUse">
      <feOffset dx="7" dy="7"/>
      <feGaussianBlur result="blur-8" stdDeviation="5"/>
      <feFlood flood-color="#231f20" flood-opacity=".75"/>
      <feComposite in2="blur-8" operator="in"/>
      <feComposite in="SourceGraphic"/>
    </filter>
    <filter id="drop-shadow-9" x="293.4" y="159.48" width="137.28" height="122.16" filterUnits="userSpaceOnUse">
      <feOffset dx="7" dy="7"/>
      <feGaussianBlur result="blur-9" stdDeviation="5"/>
      <feFlood flood-color="#231f20" flood-opacity=".75"/>
      <feComposite in2="blur-9" operator="in"/>
      <feComposite in="SourceGraphic"/>
    </filter>
    <filter id="drop-shadow-10" x="165.48" y="167.4" width="123.36" height="109.92" filterUnits="userSpaceOnUse">
      <feOffset dx="7" dy="7"/>
      <feGaussianBlur result="blur-10" stdDeviation="5"/>
      <feFlood flood-color="#231f20" flood-opacity=".75"/>
      <feComposite in2="blur-10" operator="in"/>
      <feComposite in="SourceGraphic"/>
    </filter>
    <filter id="drop-shadow-11" x="150.36" y="236.04" width="308.88" height="125.52" filterUnits="userSpaceOnUse">
      <feOffset dx="7" dy="7"/>
      <feGaussianBlur result="blur-11" stdDeviation="5"/>
      <feFlood flood-color="#231f20" flood-opacity=".75"/>
      <feComposite in2="blur-11" operator="in"/>
      <feComposite in="SourceGraphic"/>
    </filter>
    <filter id="drop-shadow-12" x="232.2" y="212.28" width="74.16" height="72" filterUnits="userSpaceOnUse">
      <feOffset dx="7" dy="7"/>
      <feGaussianBlur result="blur-12" stdDeviation="5"/>
      <feFlood flood-color="#231f20" flood-opacity=".75"/>
      <feComposite in2="blur-12" operator="in"/>
      <feComposite in="SourceGraphic"/>
    </filter>
    <filter id="drop-shadow-13" x="292.92" y="194.76" width="81.12" height="82.08" filterUnits="userSpaceOnUse">
      <feOffset dx="7" dy="7"/>
      <feGaussianBlur result="blur-13" stdDeviation="5"/>
      <feFlood flood-color="#231f20" flood-opacity=".75"/>
      <feComposite in2="blur-13" operator="in"/>
      <feComposite in="SourceGraphic"/>
    </filter>
    <filter id="drop-shadow-14" x="231.96" y="227.88" width="137.52" height="121.92" filterUnits="userSpaceOnUse">
      <feOffset dx="7" dy="7"/>
      <feGaussianBlur result="blur-14" stdDeviation="5"/>
      <feFlood flood-color="#231f20" flood-opacity=".75"/>
      <feComposite in2="blur-14" operator="in"/>
      <feComposite in="SourceGraphic"/>
    </filter>
    <filter id="drop-shadow-15" x="277.32" y="192.36" width="55.68" height="101.28" filterUnits="userSpaceOnUse">
      <feOffset dx="7" dy="7"/>
      <feGaussianBlur result="blur-15" stdDeviation="5"/>
      <feFlood flood-color="#231f20" flood-opacity=".75"/>
      <feComposite in2="blur-15" operator="in"/>
      <feComposite in="SourceGraphic"/>
    </filter>
    <filter id="drop-shadow-16" x="218.52" y="152.76" width="99.12" height="74.4" filterUnits="userSpaceOnUse">
      <feOffset dx="7" dy="7"/>
      <feGaussianBlur result="blur-16" stdDeviation="5"/>
      <feFlood flood-color="#231f20" flood-opacity=".75"/>
      <feComposite in2="blur-16" operator="in"/>
      <feComposite in="SourceGraphic"/>
    </filter>
    <filter id="drop-shadow-17" x="239.16" y="162.12" width="77.52" height="97.44" filterUnits="userSpaceOnUse">
      <feOffset dx="7" dy="7"/>
      <feGaussianBlur result="blur-17" stdDeviation="5"/>
      <feFlood flood-color="#231f20" flood-opacity=".75"/>
      <feComposite in2="blur-17" operator="in"/>
      <feComposite in="SourceGraphic"/>
    </filter>
    <filter id="drop-shadow-18" x="267.48" y="164.04" width="60.96" height="108.24" filterUnits="userSpaceOnUse">
      <feOffset dx="7" dy="7"/>
      <feGaussianBlur result="blur-18" stdDeviation="5"/>
      <feFlood flood-color="#231f20" flood-opacity=".75"/>
      <feComposite in2="blur-18" operator="in"/>
      <feComposite in="SourceGraphic"/>
    </filter>
    <filter id="drop-shadow-19" x="279.72" y="157.56" width="64.32" height="105.84" filterUnits="userSpaceOnUse">
      <feOffset dx="7" dy="7"/>
      <feGaussianBlur result="blur-19" stdDeviation="5"/>
      <feFlood flood-color="#231f20" flood-opacity=".75"/>
      <feComposite in2="blur-19" operator="in"/>
      <feComposite in="SourceGraphic"/>
    </filter>
    <filter id="drop-shadow-20" x="296.04" y="157.32" width="73.92" height="99.36" filterUnits="userSpaceOnUse">
      <feOffset dx="7" dy="7"/>
      <feGaussianBlur result="blur-20" stdDeviation="5"/>
      <feFlood flood-color="#231f20" flood-opacity=".75"/>
      <feComposite in2="blur-20" operator="in"/>
      <feComposite in="SourceGraphic"/>
    </filter>
    <filter id="drop-shadow-21" x="288.12" y="151.56" width="98.88" height="75.36" filterUnits="userSpaceOnUse">
      <feOffset dx="7" dy="7"/>
      <feGaussianBlur result="blur-21" stdDeviation="5"/>
      <feFlood flood-color="#231f20" flood-opacity=".75"/>
      <feComposite in2="blur-21" operator="in"/>
      <feComposite in="SourceGraphic"/>
    </filter>
    <filter id="drop-shadow-22" x="209.4" y="61.8" width="184.08" height="162.72" filterUnits="userSpaceOnUse">
      <feOffset dx="7" dy="7"/>
      <feGaussianBlur result="blur-22" stdDeviation="5"/>
      <feFlood flood-color="#231f20" flood-opacity=".75"/>
      <feComposite in2="blur-22" operator="in"/>
      <feComposite in="SourceGraphic"/>
    </filter>
  </defs>
  <polygon id="tronco" class="cls-11" points="246.78 452.66 225.25 529.94 367.62 531.62 329.61 454.24 246.78 452.66"/>
  <polygon id="bg" class="cls-32" points="291.74 119.86 117.75 439.21 471.84 442.98 291.74 119.86"/>
  <g id="bottom" class="cls-1">
    <g id="leaf_c1">
      <path class="cls-28" d="M292.69,410.47c7.24-.22,24.39,30.6,21.4,50.17-4.45,29.13-17.56,50.86-17.56,50.86,0,0-9.13-2.1-17.59-55.64-3.07-19.44,6.61-45.17,13.76-45.39Z"/>
      <path class="cls-30" d="M296.42,415.79l13.18,25.66-14.16-24.47,2.88,26.16,11.84,17.8-12.51-16.17.23,14.09s8.15,20.38,8.1,20.39c-.08.02-8.22-17.95-8.22-17.95l-.63,19.95s3.29,14.42,3.09,14.48c-.29.08-3.41-12.71-3.41-12.71l-1.04,4.63-2.92,10.53,1.87-9.3,1.26-8.94.84-16.67s-10.33,14.03-10.24,14.1c.08.05,9.87-15.41,9.87-15.41l.28-18.96-11.86,17.65,11.49-18.96-1.75-12.92-11.4,12.43,11.19-13.83-1.59-11.69-5.78,5.06,5.41-7.07,3.98,2.14Z"/>
    </g>
    <g id="leaf_c1-2" data-name="leaf_c1">
      <path class="cls-28" d="M299.88,404.47c6.1,3.91,2.8,39.02-10.73,53.47-20.15,21.5-43.26,32.01-43.26,32.01,0,0-6.35-6.9,16.97-55.83,8.47-17.77,31.01-33.51,37.02-29.65Z"/>
      <path class="cls-30" d="M299.95,410.97l-3.65,28.61,2.17-28.19-12.42,23.2-.3,21.38-1.16-20.41-7.78,11.74s-4.81,21.41-4.86,21.39c-.07-.03,3.38-19.45,3.38-19.45l-11.8,16.1s-5.44,13.75-5.64,13.68c-.28-.1,4.38-12.41,4.38-12.41l-3.48,3.23-8.36,7.04,6.8-6.62,6.09-6.66,10.12-13.27s-16.46,5.73-16.42,5.83c.03.09,16.85-7.12,16.85-7.12l10.96-15.48-19.77,7.84,20.21-9.13,5.87-11.64-16.43,3.8,17.05-5.07,5.3-10.54-7.63.9,8.46-2.77,2.07,4.02Z"/>
    </g>
    <g id="leaf_c1-3" data-name="leaf_c1" class="cls-3">
      <path class="cls-28" d="M278.26,412.86c5.24-5.01,38.59,6.45,49.45,23.01,16.16,24.64,20.94,49.57,20.94,49.57,0,0-8.19,4.55-50.27-29.62-15.28-12.41-25.28-38.02-20.11-42.96Z"/>
      <path class="cls-30" d="M284.59,414.33l26.95,10.28-26.89-8.74,19.63,17.53,20.71,5.32-20.11-3.67,9.58,10.32s19.68,9.71,19.65,9.75c-.05.06-18.11-7.86-18.11-7.86l12.87,15.26s12.09,8.52,11.97,8.7c-.16.25-11.03-7.17-11.03-7.17l2.32,4.14,4.87,9.78-4.83-8.17-5.04-7.49-10.52-12.96s1.69,17.34,1.81,17.33c.09-.01-2.96-18.06-2.96-18.06l-12.47-14.29,2.98,21.06-4.13-21.79-9.93-8.44-.18,16.86-.92-17.76-9-7.63-.91,7.62-.7-8.88,4.39-1.07Z"/>
    </g>
  </g>
  <g id="fila1" class="cls-2">
    <g id="leaf_c1-4" data-name="leaf_c1">
      <path class="cls-25" d="M165.75,415.35c-4.21-6.61-43.23-3.8-59.54,10.4-24.28,21.14-36.42,45.66-36.42,45.66,0,0,7.51,6.94,62.28-17.03,19.89-8.7,37.82-32.52,33.67-39.04Z"/>
      <path class="cls-29" d="M158.54,415.15l-31.81,3.33,31.31-1.75-25.99,12.83-23.72-.11,22.61,1.66-13.19,8.09s-23.85,4.71-23.83,4.77c.03.08,21.65-3.22,21.65-3.22l-18.1,12.31s-15.37,5.55-15.3,5.76c.1.3,13.86-4.43,13.86-4.43l-3.66,3.66-7.98,8.81,7.48-7.15,7.51-6.39,14.94-10.57s-6.7,17.51-6.82,17.46c-.09-.04,8.26-17.9,8.26-17.9l17.4-11.42-9.12,21.01,10.56-21.45,13.04-6.05-4.56,17.52,5.99-18.15,11.81-5.46-1.16,8.15,3.25-9-4.41-2.3Z"/>
    </g>
    <g id="leaf_c1-5" data-name="leaf_c1">
      <path class="cls-25" d="M210.97,421.26c-4.21-6.61-43.23-3.8-59.54,10.4-24.28,21.14-36.42,45.66-36.42,45.66,0,0,7.51,6.94,62.28-17.03,19.89-8.7,37.82-32.52,33.67-39.04Z"/>
      <path class="cls-29" d="M203.77,421.06l-31.81,3.33,31.31-1.75-25.99,12.83-23.72-.11,22.61,1.66-13.19,8.09s-23.85,4.71-23.83,4.77c.03.08,21.65-3.22,21.65-3.22l-18.1,12.31s-15.37,5.55-15.3,5.76c.1.3,13.86-4.43,13.86-4.43l-3.66,3.66-7.98,8.81,7.48-7.15,7.51-6.39,14.94-10.57s-6.7,17.51-6.82,17.46c-.09-.04,8.26-17.9,8.26-17.9l17.4-11.42-9.12,21.01,10.56-21.45,13.04-6.05-4.56,17.52,5.99-18.15,11.81-5.46-1.16,8.15,3.25-9-4.41-2.3Z"/>
    </g>
    <g id="leaf_c1-6" data-name="leaf_c1">
      <path class="cls-25" d="M254.46,419.88c-4.85-6.16-43.39.49-58.22,16.24-22.07,23.43-31.73,49.04-31.73,49.04,0,0,8.16,6.16,60.29-23.1,18.93-10.63,34.43-36.1,29.65-42.17Z"/>
      <path class="cls-29" d="M247.27,420.39l-31.33,6.45,30.99-4.83-24.6,15.34-23.62,2.23,22.67-.58-12.33,9.36s-23.27,7.05-23.24,7.1c.04.08,21.22-5.35,21.22-5.35l-16.8,14.04s-14.75,7.04-14.65,7.25c.13.29,13.35-5.78,13.35-5.78l-3.28,4-7.07,9.56,6.74-7.85,6.84-7.1,13.82-11.99s-4.93,18.08-5.06,18.05c-.1-.03,6.45-18.63,6.45-18.63l16.19-13.08-7,21.8,8.39-22.39,12.37-7.3-2.8,17.88,4.16-18.65,11.21-6.6-.35,8.22,2.34-9.28-4.62-1.85Z"/>
    </g>
    <g id="leaf_c1-7" data-name="leaf_c1">
      <path class="cls-25" d="M289.92,424.64c-5.03-6.01-43.36,1.8-57.7,17.99-21.35,24.09-30.23,49.98-30.23,49.98,0,0,8.35,5.91,59.57-24.91,18.6-11.19,33.32-37.12,28.36-43.05Z"/>
      <path class="cls-29" d="M282.75,425.37l-31.12,7.4,30.83-5.77-24.12,16.07-23.54,2.95,22.64-1.26-12.04,9.72s-23.05,7.74-23.02,7.8c.04.07,21.05-5.98,21.05-5.98l-16.37,14.54s-14.53,7.48-14.43,7.69c.14.29,13.17-6.18,13.17-6.18l-3.16,4.1-6.78,9.77,6.5-8.05,6.63-7.3,13.45-12.4s-4.39,18.22-4.51,18.19c-.1-.03,5.88-18.82,5.88-18.82l15.79-13.56-6.34,22,7.71-22.63,12.15-7.67-2.26,17.96,3.6-18.77,11-6.94-.1,8.23,2.06-9.35-4.67-1.71Z"/>
    </g>
    <g id="leaf_c1-8" data-name="leaf_c1">
      <path class="cls-25" d="M308.28,424.48c4.84-6.17,43.39.46,58.23,16.19,22.09,23.41,31.76,49.02,31.76,49.02,0,0-8.16,6.17-60.31-23.06-18.94-10.61-34.45-36.07-29.68-42.15Z"/>
      <path class="cls-29" d="M315.47,424.98l31.33,6.43-30.99-4.81,24.61,15.32,23.62,2.22-22.67-.56,12.33,9.35s23.28,7.03,23.25,7.08c-.04.08-21.23-5.33-21.23-5.33l16.81,14.03s14.75,7.03,14.66,7.24c-.13.29-13.35-5.77-13.35-5.77l3.28,4,7.08,9.55-6.74-7.85-6.85-7.1-13.83-11.98s4.95,18.08,5.07,18.04c.1-.03-6.46-18.63-6.46-18.63l-16.2-13.07,7.01,21.8-8.4-22.38-12.38-7.3,2.82,17.88-4.18-18.65-11.21-6.59.36,8.22-2.35-9.28,4.62-1.86Z"/>
    </g>
    <g id="leaf_c1-9" data-name="leaf_c1">
      <path class="cls-25" d="M344.93,416.33c4.84-6.17,43.39.46,58.23,16.19,22.09,23.41,31.76,49.02,31.76,49.02,0,0-8.16,6.17-60.31-23.06-18.94-10.61-34.45-36.07-29.68-42.15Z"/>
      <path class="cls-29" d="M352.12,416.83l31.33,6.43-30.99-4.81,24.61,15.32,23.62,2.22-22.67-.56,12.33,9.35s23.28,7.03,23.25,7.08c-.04.08-21.23-5.33-21.23-5.33l16.81,14.03s14.75,7.03,14.66,7.24c-.13.29-13.35-5.77-13.35-5.77l3.28,4,7.08,9.55-6.74-7.85-6.85-7.1-13.83-11.98s4.95,18.08,5.07,18.04c.1-.03-6.46-18.63-6.46-18.63l-16.2-13.07,7.01,21.8-8.4-22.38-12.38-7.3,2.82,17.88-4.18-18.65-11.21-6.59.36,8.22-2.35-9.28,4.62-1.86Z"/>
    </g>
    <g id="leaf_c1-10" data-name="leaf_c1">
      <path class="cls-25" d="M382.77,415.09c4.57-6.37,43.37-1.4,58.87,13.68,23.07,22.44,33.84,47.61,33.84,47.61,0,0-7.89,6.51-61.25-20.45-19.38-9.79-35.97-34.56-31.46-40.84Z"/>
      <path class="cls-29" d="M389.98,415.28l31.58,5.08-31.17-3.47,25.25,14.25,23.69,1.2-22.67.41,12.72,8.81s23.56,6.02,23.53,6.08c-.03.08-21.44-4.41-21.44-4.41l17.39,13.29s15.04,6.39,14.96,6.6c-.12.3-13.59-5.19-13.59-5.19l3.45,3.85,7.48,9.24-7.08-7.55-7.15-6.8-14.33-11.38s5.72,17.85,5.84,17.81c.1-.03-7.26-18.33-7.26-18.33l-16.75-12.36,7.94,21.48-9.36-22-12.68-6.76,3.58,17.74-4.97-18.45-11.49-6.1.71,8.2-2.75-9.17,4.53-2.05Z"/>
    </g>
    <g id="leaf_c1-11" data-name="leaf_c1">
      <path class="cls-25" d="M429.3,419.76c3.66-6.93,42.78-7.28,60.18,5.55,25.91,19.1,39.99,42.57,39.99,42.57,0,0-6.93,7.52-63.46-11.94-20.53-7.07-40.33-29.35-36.72-36.18Z"/>
      <path class="cls-29" d="M436.46,418.98l31.98.74-31.35.79,26.95,10.68,23.63-2.03-22.4,3.49,13.8,7s24.16,2.77,24.14,2.82c-.02.08-21.84-1.46-21.84-1.46l19.04,10.81s15.77,4.28,15.71,4.51c-.08.31-14.17-3.3-14.17-3.3l3.94,3.35,8.67,8.14-8.04-6.52-8-5.76-15.74-9.33s8.09,16.91,8.21,16.85c.09-.04-9.68-17.17-9.68-17.17l-18.27-9.97,10.79,20.2-12.26-20.52-13.48-4.97,5.96,17.09-7.43-17.61-12.21-4.49,1.82,8.03-3.97-8.71,4.21-2.65Z"/>
    </g>
  </g>
  <g id="fila2" class="cls-9">
    <g id="leaf_c1-12" data-name="leaf_c1">
      <path class="cls-27" d="M199.45,397.9c-2.56-6.69-38.01-11.31-55.22-1.58-25.61,14.48-40.97,34.22-40.97,34.22,0,0,5.46,7.59,58.89-3.85,19.4-4.15,39.82-22.19,37.3-28.79Z"/>
      <path class="cls-31" d="M193.03,396.4l-29.1-2.85,28.36,4.17-25.62,6.73-21.22-4.44,19.94,5.63-13.29,4.83s-22.22-.15-22.21-.09c.01.08,19.98,1.08,19.98,1.08l-18.46,7.71s-14.78,2.15-14.75,2.36c.04.29,13.22-1.43,13.22-1.43l-3.95,2.61-8.76,6.43,8.01-5.03,7.9-4.35,15.31-6.73s-9.2,14.45-9.3,14.39c-.08-.05,10.67-14.52,10.67-14.52l17.67-7.04-12.01,17.14,13.38-17.27,12.78-3.03-7.29,14.85,8.68-15.16,11.57-2.73-2.53,7.08,4.56-7.47-3.53-2.87Z"/>
    </g>
    <g id="leaf_c1-13" data-name="leaf_c1">
      <path class="cls-27" d="M239.32,394.11c-4.03-5.93-39.59-2.3-54.11,11.12-21.61,19.97-32.03,42.7-32.03,42.7,0,0,7.05,6.13,56.44-17.25,17.94-8.49,33.67-30.73,29.7-36.57Z"/>
      <path class="cls-31" d="M232.73,394.12l-28.97,3.9,28.56-2.44-23.4,12.43-21.67.54,20.7.91-11.83,7.75s-21.66,4.95-21.64,5c.03.07,19.69-3.53,19.69-3.53l-16.2,11.74s-13.89,5.48-13.82,5.68c.1.28,12.54-4.43,12.54-4.43l-3.24,3.44-7.05,8.27,6.64-6.73,6.69-6.04,13.36-10.06s-5.64,16.17-5.76,16.13c-.09-.03,7.06-16.58,7.06-16.58l15.59-10.9-7.76,19.44,9.07-19.88,11.75-5.88-3.69,16.13,4.98-16.74,10.64-5.31-.84,7.47,2.73-8.31-4.09-1.98Z"/>
    </g>
    <g id="leaf_c1-14" data-name="leaf_c1">
      <path class="cls-27" d="M281.6,394.03c-4.25-5.77-39.65-.78-53.65,13.17-20.83,20.78-30.38,43.89-30.38,43.89,0,0,7.28,5.86,55.74-19.39,17.6-9.17,32.48-31.99,28.29-37.68Z"/>
      <path class="cls-31" d="M275.01,394.29l-28.8,5,28.45-3.53-22.91,13.31-21.64,1.37,20.72.12-11.53,8.2s-21.46,5.77-21.44,5.82c.03.07,19.54-4.28,19.54-4.28l-15.74,12.35s-13.67,6.01-13.59,6.2c.11.27,12.36-4.9,12.36-4.9l-3.11,3.56-6.73,8.53,6.38-6.98,6.45-6.29,12.96-10.56s-5.02,16.38-5.14,16.34c-.09-.03,6.42-16.84,6.42-16.84l15.16-11.49-7.01,19.72,8.3-20.21,11.51-6.32-3.07,16.26,4.33-16.92,10.43-5.71-.56,7.5,2.41-8.41-4.17-1.83Z"/>
    </g>
    <g id="leaf_c1-15" data-name="leaf_c1">
      <path class="cls-27" d="M320.86,396.55c-4.68-5.42-39.59,2.29-52.46,17.29-19.16,22.33-26.89,46.12-26.89,46.12,0,0,7.71,5.28,54.07-23.65,16.83-10.5,29.9-34.41,25.28-39.76Z"/>
      <path class="cls-31" d="M314.31,397.32l-28.33,7.22,28.09-5.72-21.81,15.04-21.47,3.04,20.67-1.49-10.86,9.06s-20.95,7.42-20.92,7.47c.04.07,19.15-5.78,19.15-5.78l-14.74,13.53s-13.17,7.05-13.07,7.24c.14.26,11.94-5.84,11.94-5.84l-2.82,3.79-6.05,9.03,5.82-7.46,5.95-6.77,12.11-11.53s-3.74,16.72-3.85,16.69c-.09-.02,5.1-17.28,5.1-17.28l14.23-12.63-5.46,20.2,6.71-20.79,10.99-7.19-1.8,16.45,3.01-17.21,9.95-6.5.03,7.52,1.75-8.57-4.3-1.5Z"/>
    </g>
    <g id="leaf_c1-16" data-name="leaf_c1">
      <path class="cls-27" d="M305.05,379.32c5.73-4.43,37.7,10.46,46.77,28.06,13.49,26.2,15.63,51.49,15.63,51.49,0,0-8.63,3.66-46.89-34.73-13.9-13.94-21.16-40.46-15.5-44.83Z"/>
      <path class="cls-31" d="M311.19,381.44l25.73,13.04-25.83-11.5,17.68,19.49,20.04,7.46-19.62-5.75,8.45,11.27s18.56,11.72,18.52,11.76c-.05.06-17.19-9.71-17.19-9.71l11.2,16.52s11.13,9.74,10.99,9.91c-.19.23-10.22-8.29-10.22-8.29l1.88,4.36,3.82,10.24-3.95-8.63-4.22-7.98-9.1-13.99s-.13,17.42-.02,17.42c.09,0-1.05-18.27-1.05-18.27l-10.9-15.52.75,21.25-1.82-22.1-9-9.44-1.94,16.75.94-17.76-8.15-8.53-1.71,7.49.23-8.9,4.48-.6Z"/>
    </g>
    <g id="leaf_c1-17" data-name="leaf_c1">
      <path class="cls-27" d="M335.92,383.26c5.6-4.61,38,9.3,47.6,26.62,14.29,25.77,17.2,50.99,17.2,50.99,0,0-8.51,3.93-47.93-33.27-14.32-13.51-22.39-39.79-16.87-44.33Z"/>
      <path class="cls-31" d="M342.12,385.2l26.11,12.25-26.17-10.71,18.27,18.94,20.26,6.85-19.78-5.15,8.79,11.01s18.91,11.14,18.87,11.19c-.05.06-17.48-9.18-17.48-9.18l11.7,16.17s11.42,9.4,11.29,9.57c-.18.24-10.47-7.97-10.47-7.97l2.01,4.3,4.13,10.12-4.21-8.5-4.47-7.84-9.53-13.71s.4,17.42.52,17.41c.09,0-1.61-18.23-1.61-18.23l-11.37-15.18,1.4,21.22-2.5-22.03-9.28-9.16-1.43,16.8.4-17.78-8.41-8.28-1.48,7.54-.04-8.9,4.46-.74Z"/>
    </g>
    <g id="leaf_c1-18" data-name="leaf_c1">
      <path class="cls-27" d="M357.24,396.52c3.68-6.24,38.89-4.28,53.84,8.7,22.25,19.32,33.63,42.01,33.63,42.01,0,0-6.65,6.6-56.43-14.84-18.08-7.79-34.66-29.71-31.03-35.87Z"/>
      <path class="cls-31" d="M363.73,396.21l28.73,2.56-28.25-1.1,23.65,11.53,21.38-.51-20.35,1.94,12.03,7.33s21.58,3.99,21.56,4.04c-.03.07-19.57-2.64-19.57-2.64l16.53,11.19s13.95,4.92,13.89,5.12c-.09.29-12.57-3.9-12.57-3.9l3.36,3.35,7.35,8.09-6.87-6.55-6.88-5.84-13.65-9.61s6.35,16.23,6.45,16.18c.08-.04-7.76-16.57-7.76-16.57l-15.89-10.36,8.59,19.45-9.89-19.84-11.86-5.42,4.42,16.28-5.72-16.84-10.74-4.9,1.19,7.59-3.09-8.35,3.94-2.22Z"/>
    </g>
    <g id="leaf_c1-19" data-name="leaf_c1">
      <path class="cls-27" d="M394.16,398.03c2.32-6.87,37.18-12.18,54.48-2.54,25.75,14.34,41.54,34.21,41.54,34.21,0,0-5.15,7.83-58.28-2.93-19.29-3.91-40.03-21.96-37.74-28.73Z"/>
      <path class="cls-31" d="M400.45,396.39l28.64-3.39-27.88,4.73,25.52,6.43,20.82-4.89-19.52,6.08,13.28,4.7s21.94-.52,21.93-.47c-.01.08-19.69,1.43-19.69,1.43l18.48,7.55s14.66,1.95,14.64,2.16c-.03.3-13.1-1.24-13.1-1.24l3.98,2.59,8.85,6.41-8.07-5-7.93-4.3-15.33-6.61s9.54,14.58,9.64,14.51c.07-.05-11-14.63-11-14.63l-17.67-6.88,12.4,17.28-13.76-17.39-12.72-2.87,7.66,15.02-9.05-15.31-11.51-2.59,2.73,7.18-4.74-7.54,3.4-2.99Z"/>
    </g>
  </g>
  <g id="fila2b" class="cls-8">
    <g id="leaf_c1-20" data-name="leaf_c1">
      <path class="cls-25" d="M187.13,348.98c-3.42-5.37-35.12-3.08-48.38,8.45-19.73,17.17-29.59,37.11-29.59,37.11,0,0,6.11,5.64,50.61-13.84,16.16-7.07,30.74-26.42,27.36-31.72Z"/>
      <path class="cls-29" d="M181.28,348.82l-25.85,2.7,25.45-1.42-21.12,10.43-19.28-.09,18.37,1.35-10.72,6.58s-19.38,3.83-19.37,3.87c.02.06,17.59-2.62,17.59-2.62l-14.71,10s-12.49,4.51-12.43,4.68c.09.25,11.26-3.6,11.26-3.6l-2.97,2.97-6.49,7.16,6.08-5.81,6.1-5.19,12.14-8.59s-5.44,14.23-5.54,14.19c-.08-.03,6.71-14.55,6.71-14.55l14.14-9.28-7.41,17.07,8.58-17.43,10.59-4.91-3.7,14.24,4.86-14.75,9.59-4.44-.95,6.62,2.64-7.32-3.59-1.87Z"/>
    </g>
    <g id="leaf_c1-21" data-name="leaf_c1">
      <path class="cls-25" d="M223.88,353.78c-3.42-5.37-35.12-3.08-48.38,8.45-19.73,17.17-29.59,37.11-29.59,37.11,0,0,6.11,5.64,50.61-13.84,16.16-7.07,30.74-26.42,27.36-31.72Z"/>
      <path class="cls-29" d="M218.02,353.62l-25.85,2.7,25.45-1.42-21.12,10.43-19.28-.09,18.37,1.35-10.72,6.58s-19.38,3.83-19.37,3.87c.02.06,17.59-2.62,17.59-2.62l-14.71,10s-12.49,4.51-12.43,4.68c.09.25,11.26-3.6,11.26-3.6l-2.97,2.97-6.49,7.16,6.08-5.81,6.1-5.19,12.14-8.59s-5.44,14.23-5.54,14.19c-.08-.03,6.71-14.55,6.71-14.55l14.14-9.28-7.41,17.07,8.58-17.43,10.59-4.91-3.7,14.24,4.86-14.75,9.59-4.44-.95,6.62,2.64-7.32-3.59-1.87Z"/>
    </g>
    <g id="leaf_c1-22" data-name="leaf_c1">
      <path class="cls-25" d="M259.22,352.66c-3.94-5.01-35.26.4-47.31,13.19-17.93,19.04-25.78,39.85-25.78,39.85,0,0,6.63,5.01,48.99-18.77,15.38-8.64,27.97-29.33,24.09-34.27Z"/>
      <path class="cls-29" d="M253.37,353.07l-25.46,5.24,25.18-3.93-19.99,12.46-19.19,1.82,18.42-.47-10.02,7.6s-18.91,5.73-18.89,5.77c.03.06,17.25-4.34,17.25-4.34l-13.65,11.41s-11.98,5.72-11.91,5.89c.11.24,10.85-4.7,10.85-4.7l-2.66,3.25-5.75,7.77,5.48-6.38,5.56-5.77,11.23-9.75s-4.01,14.69-4.11,14.66c-.08-.02,5.24-15.14,5.24-15.14l13.16-10.63-5.69,17.72,6.82-18.19,10.06-5.94-2.28,14.53,3.38-15.16,9.11-5.36-.29,6.68,1.9-7.54-3.75-1.51Z"/>
    </g>
    <g id="leaf_c1-23" data-name="leaf_c1">
      <path class="cls-25" d="M288.03,356.53c-4.09-4.89-35.23,1.47-46.89,14.62-17.35,19.57-24.56,40.61-24.56,40.61,0,0,6.78,4.8,48.41-20.24,15.12-9.1,27.08-30.16,23.05-34.98Z"/>
      <path class="cls-29" d="M282.21,357.12l-25.29,6.01,25.05-4.68-19.6,13.06-19.13,2.39,18.4-1.03-9.78,7.9s-18.73,6.29-18.71,6.34c.03.06,17.11-4.86,17.11-4.86l-13.3,11.82s-11.81,6.08-11.72,6.25c.12.23,10.7-5.02,10.7-5.02l-2.56,3.33-5.51,7.94,5.28-6.54,5.38-5.94,10.93-10.08s-3.56,14.81-3.67,14.78c-.08-.02,4.78-15.29,4.78-15.29l12.83-11.02-5.15,17.88,6.26-18.39,9.87-6.24-1.84,14.59,2.92-15.25,8.94-5.64-.09,6.69,1.68-7.6-3.8-1.39Z"/>
    </g>
    <g id="leaf_c1-24" data-name="leaf_c1">
      <path class="cls-25" d="M319.95,336.97c-5.24-3.62-33.57,10.79-41.3,26.57-11.51,23.49-12.86,45.68-12.86,45.68,0,0,7.82,2.82,41.27-32.4,12.15-12.79,18.07-36.28,12.9-39.85Z"/>
      <path class="cls-29" d="M314.49,339.09l-22.77,12.53,22.9-11.19-15.42,17.81-17.8,7.4,17.46-5.89-7.33,10.22s-16.38,11.05-16.34,11.09c.05.05,15.2-9.24,15.2-9.24l-9.67,14.93s-9.76,9-9.64,9.14c.17.2,8.98-7.69,8.98-7.69l-1.59,3.89-3.2,9.12,3.35-7.71,3.61-7.15,7.85-12.63s.51,15.22.4,15.22c-.08,0,.54-16.01.54-16.01l9.43-14.04-.2,18.61,1.14-19.39,7.85-8.64,2.11,14.56-1.24-15.48,7.12-7.81,1.7,6.47-.41-7.77-4.03-.33Z"/>
    </g>
    <g id="leaf_c1-25" data-name="leaf_c1">
      <path class="cls-25" d="M302.95,356.4c3.93-5.01,35.26.38,47.32,13.16,17.95,19.03,25.81,39.83,25.81,39.83,0,0-6.63,5.01-49.01-18.74-15.39-8.62-28-29.31-24.12-34.25Z"/>
      <path class="cls-29" d="M308.79,356.81l25.46,5.23-25.18-3.91,20,12.45,19.19,1.8-18.42-.46,10.02,7.6s18.91,5.71,18.89,5.75c-.03.06-17.25-4.33-17.25-4.33l13.66,11.4s11.99,5.71,11.91,5.88c-.11.24-10.85-4.69-10.85-4.69l2.67,3.25,5.75,7.76-5.48-6.38-5.56-5.77-11.24-9.74s4.02,14.69,4.12,14.66c.08-.02-5.25-15.13-5.25-15.13l-13.16-10.62,5.7,17.71-6.83-18.19-10.06-5.93,2.29,14.53-3.39-15.15-9.11-5.36.29,6.68-1.91-7.54,3.75-1.51Z"/>
    </g>
    <g id="leaf_c1-26" data-name="leaf_c1">
      <path class="cls-25" d="M332.73,349.77c3.93-5.01,35.26.38,47.32,13.16,17.95,19.03,25.81,39.83,25.81,39.83,0,0-6.63,5.01-49.01-18.74-15.39-8.62-28-29.31-24.12-34.25Z"/>
      <path class="cls-29" d="M338.57,350.18l25.46,5.23-25.18-3.91,20,12.45,19.19,1.8-18.42-.46,10.02,7.6s18.91,5.71,18.89,5.75c-.03.06-17.25-4.33-17.25-4.33l13.66,11.4s11.99,5.71,11.91,5.88c-.11.24-10.85-4.69-10.85-4.69l2.67,3.25,5.75,7.76-5.48-6.38-5.56-5.77-11.24-9.74s4.02,14.69,4.12,14.66c.08-.02-5.25-15.13-5.25-15.13l-13.16-10.62,5.7,17.71-6.83-18.19-10.06-5.93,2.29,14.53-3.39-15.15-9.11-5.36.29,6.68-1.91-7.54,3.75-1.51Z"/>
    </g>
    <g id="leaf_c1-27" data-name="leaf_c1">
      <path class="cls-25" d="M363.48,348.77c3.71-5.18,35.24-1.14,47.84,11.11,18.75,18.24,27.5,38.68,27.5,38.68,0,0-6.41,5.29-49.77-16.61-15.75-7.96-29.23-28.08-25.57-33.18Z"/>
      <path class="cls-29" d="M369.33,348.93l25.66,4.13-25.33-2.82,20.51,11.58,19.25.97-18.42.33,10.34,7.16s19.14,4.89,19.12,4.94c-.03.06-17.42-3.59-17.42-3.59l14.13,10.8s12.22,5.19,12.15,5.36c-.1.24-11.04-4.22-11.04-4.22l2.8,3.13,6.08,7.51-5.75-6.14-5.81-5.52-11.64-9.25s4.65,14.5,4.75,14.47c.08-.03-5.9-14.9-5.9-14.9l-13.61-10.04,6.45,17.45-7.6-17.88-10.31-5.49,2.91,14.42-4.04-14.99-9.33-4.96.58,6.66-2.23-7.45,3.68-1.67Z"/>
    </g>
    <g id="leaf_c1-28" data-name="leaf_c1">
      <path class="cls-25" d="M401.29,352.57c2.98-5.63,34.76-5.92,48.9,4.51,21.05,15.52,32.5,34.59,32.5,34.59,0,0-5.63,6.11-51.56-9.7-16.68-5.74-32.77-23.85-29.84-29.4Z"/>
      <path class="cls-29" d="M407.11,351.93l25.98.6-25.48.65,21.9,8.68,19.2-1.65-18.21,2.83,11.22,5.69s19.63,2.25,19.62,2.29c-.02.07-17.75-1.19-17.75-1.19l15.47,8.78s12.81,3.48,12.77,3.66c-.06.25-11.51-2.68-11.51-2.68l3.2,2.72,7.04,6.61-6.53-5.3-6.5-4.68-12.79-7.58s6.58,13.74,6.67,13.69c.07-.04-7.87-13.96-7.87-13.96l-14.85-8.1,8.77,16.41-9.96-16.68-10.96-4.04,4.84,13.89-6.04-14.31-9.92-3.65,1.48,6.52-3.22-7.08,3.42-2.15Z"/>
    </g>
  </g>
  <g id="leaf_c1-29" data-name="leaf_c1" class="cls-5">
    <path class="cls-10" d="M223.95,331.4c-3.12-4.46-30.1-1.36-41,8.98-16.22,15.38-23.92,32.76-23.92,32.76,0,0,5.42,4.59,42.71-13.65,13.54-6.63,25.28-23.68,22.21-28.08Z"/>
    <path class="cls-26" d="M218.94,331.47l-21.97,3.25,21.67-2.14-17.66,9.67-16.46.62,15.74.49-8.91,6s-16.41,3.97-16.39,4.01c.02.05,14.92-2.87,14.92-2.87l-12.2,9.08s-10.5,4.3-10.44,4.45c.08.21,9.48-3.48,9.48-3.48l-2.43,2.65-5.28,6.35,4.98-5.18,5.02-4.66,10.05-7.77s-4.13,12.34-4.21,12.31c-.07-.02,5.2-12.66,5.2-12.66l11.74-8.43-5.71,14.84,6.69-15.19,8.87-4.58-2.64,12.29,3.62-12.77,8.03-4.14-.57,5.69,1.99-6.34-3.13-1.47Z"/>
  </g>
  <g id="leaf_c1-30" data-name="leaf_c1" class="cls-6">
    <path class="cls-10" d="M374.27,332.06c-.91,5.37,20.5,22.09,35.51,22.37,22.35.42,40.02-6.56,40.02-6.56,0,0-.64-7.07-40.01-20.24-14.3-4.78-34.63-.87-35.52,4.42Z"/>
    <path class="cls-26" d="M377.89,335.52l17.93,13.1-16.94-13.69,19.36,5.5,12.17,11.11-10.87-11.39,10.56,1.98s14.48,8.68,14.49,8.65c.02-.05-12.65-8.42-12.65-8.42l15.06,2.09s10.5,4.3,10.56,4.16c.09-.21-9.2-4.17-9.2-4.17l3.59-.18,8.22-.82-7.18.2-6.85-.21-12.62-1.51s11.6-5.9,11.64-5.82c.03.06-12.59,5.37-12.59,5.37l-14.28-2.23,14.48-6.57-15.43,6.13-9.53-2.96,10.51-6.9-11.54,6.56-8.62-2.69,4.39-3.65-5.87,3.12,1.2,3.24Z"/>
  </g>
  <g id="fila3" class="cls-7">
    <g id="leaf_c1-31" data-name="leaf_c1">
      <path class="cls-28" d="M201.28,275.89c3.88,6.12-13.92,36.56-32.29,43.96-27.34,11-52.72,10.78-52.72,10.78,0,0-2.85-8.93,38.93-43.46,15.17-12.54,42.25-17.31,46.07-11.27Z"/>
      <path class="cls-30" d="M198.6,281.8l-15.38,24.4,13.86-24.65-21.05,15.79-9.29,19.26,7.55-19-12.01,7.37s-13.39,17.39-13.43,17.35c-.05-.06,11.27-16.21,11.27-16.21l-17.49,9.61s-10.74,10.18-10.89,10.03c-.21-.21,9.2-9.4,9.2-9.4l-4.52,1.46-10.55,2.85,8.96-3.13,8.33-3.46,14.78-7.76s-17.34-1.75-17.34-1.63c0,.09,18.29.65,18.29.65l16.46-9.42-21.23-1.23,22.17.24,10.23-8.08-16.5-3.49,17.6,2.59,9.25-7.32-7.3-2.4,8.84,1.06.18,4.52Z"/>
    </g>
    <g id="leaf_c1-32" data-name="leaf_c1">
      <path class="cls-28" d="M216.83,281.99c5.07,5.18-6.04,38.66-22.47,49.69-24.46,16.43-49.34,21.47-49.34,21.47,0,0-4.64-8.15,29.08-50.59,12.24-15.41,37.74-25.69,42.74-20.58Z"/>
      <path class="cls-30" d="M215.43,288.34l-9.99,27.06,8.45-26.98-17.32,19.81-5.1,20.77,3.45-20.15-10.22,9.7s-9.5,19.79-9.54,19.75c-.06-.04,7.66-18.2,7.66-18.2l-15.12,13.03s-8.39,12.18-8.57,12.07c-.25-.16,7.05-11.11,7.05-11.11l-4.11,2.37-9.73,4.98,8.12-4.92,7.43-5.12,12.85-10.66s-17.32,1.88-17.31,2c.01.09,18.02-3.16,18.02-3.16l14.16-12.62-21.02,3.2,21.74-4.36,8.33-10.03h-16.87s17.75-1.11,17.75-1.11l7.53-9.08-7.63-.83,8.87-.8,1.12,4.38Z"/>
    </g>
    <g id="leaf_c1-33" data-name="leaf_c1">
      <path class="cls-28" d="M250.41,286.99c5.14,5.11-5.49,38.74-21.77,50-24.23,16.77-49.03,22.16-49.03,22.16,0,0-4.75-8.08,28.37-50.99,12.03-15.58,37.38-26.22,42.44-21.17Z"/>
      <path class="cls-30" d="M249.11,293.36l-9.6,27.2,8.07-27.1-17.04,20.06-4.81,20.83,3.17-20.2-10.08,9.84s-9.22,19.92-9.26,19.89c-.07-.04,7.41-18.3,7.41-18.3l-14.93,13.24s-8.22,12.3-8.4,12.18c-.26-.16,6.9-11.21,6.9-11.21l-4.08,2.43-9.66,5.11,8.05-5.03,7.36-5.22,12.7-10.84s-17.3,2.12-17.28,2.24c.01.09,17.98-3.41,17.98-3.41l13.98-12.82-20.98,3.5,21.68-4.67,8.19-10.14-16.86.24,17.73-1.36,7.41-9.19-7.65-.72,8.86-.92,1.18,4.37Z"/>
    </g>
    <g id="leaf_c1-34" data-name="leaf_c1">
      <path class="cls-28" d="M270,307c4.78,5.45-8.08,38.28-25.08,48.43-25.3,15.11-50.41,18.82-50.41,18.82,0,0-4.2-8.38,31.72-48.97,13.04-14.74,39.05-23.65,43.77-18.28Z"/>
      <path class="cls-30" d="M268.27,313.26l-11.41,26.49,9.86-26.5-18.35,18.87-6.19,20.47,4.51-19.94-10.72,9.14s-10.53,19.25-10.58,19.22c-.06-.05,8.62-17.76,8.62-17.76l-15.79,12.21s-9.03,11.72-9.2,11.59c-.24-.17,7.63-10.72,7.63-10.72l-4.23,2.15-9.98,4.45,8.37-4.48,7.7-4.71,13.39-9.96s-17.4.96-17.39,1.08c0,.09,18.17-2.19,18.17-2.19l14.81-11.85-21.16,2.08,21.94-3.2,8.85-9.57-16.84-.89,17.78-.17,8.01-8.67-7.58-1.24,8.9-.33.88,4.43Z"/>
    </g>
    <g id="leaf_c1-35" data-name="leaf_c1">
      <path class="cls-28" d="M295.64,299.41c6.23,3.71,4.12,38.91-8.92,53.8-19.41,22.17-42.15,33.45-42.15,33.45,0,0-6.58-6.68,15.07-56.37,7.86-18.05,29.86-34.54,36-30.89Z"/>
      <path class="cls-30" d="M295.92,305.9l-2.68,28.72,1.21-28.25-11.63,23.6.42,21.38-1.85-20.36-7.38,12s-4.08,21.56-4.13,21.55c-.07-.03,2.72-19.56,2.72-19.56l-11.25,16.49s-4.97,13.93-5.18,13.87c-.29-.09,3.96-12.55,3.96-12.55l-3.37,3.35-8.12,7.31,6.58-6.84,5.87-6.86,9.67-13.61s-16.26,6.28-16.21,6.39c.04.08,16.6-7.69,16.6-7.69l10.43-15.84-19.49,8.51,19.88-9.81,5.47-11.83-16.3,4.35,16.87-5.65,4.94-10.72-7.59,1.16,8.36-3.05,2.21,3.95Z"/>
    </g>
    <g id="leaf_c1-36" data-name="leaf_c1">
      <path class="cls-28" d="M295.3,310.31c7.24-.22,24.39,30.6,21.4,50.17-4.45,29.13-17.56,50.86-17.56,50.86,0,0-9.13-2.1-17.59-55.64-3.07-19.44,6.61-45.17,13.76-45.39Z"/>
      <path class="cls-30" d="M299.03,315.63l13.18,25.66-14.16-24.47,2.88,26.16,11.84,17.8-12.51-16.17.23,14.09s8.15,20.38,8.1,20.39c-.08.02-8.22-17.95-8.22-17.95l-.63,19.95s3.29,14.42,3.09,14.48c-.29.08-3.41-12.71-3.41-12.71l-1.04,4.63-2.92,10.53,1.87-9.3,1.26-8.94.84-16.67s-10.33,14.03-10.24,14.1c.08.05,9.87-15.41,9.87-15.41l.28-18.96-11.86,17.65,11.49-18.96-1.75-12.92-11.4,12.43,11.19-13.83-1.59-11.69-5.78,5.06,5.41-7.07,3.98,2.14Z"/>
    </g>
    <g id="leaf_c1-37" data-name="leaf_c1">
      <path class="cls-28" d="M297.2,298.17c-6.51,3.19-7.25,38.45,4.54,54.35,17.55,23.67,39.31,36.75,39.31,36.75,0,0,7.09-6.12-10.47-57.4-6.38-18.62-26.97-36.84-33.38-33.69Z"/>
      <path class="cls-30" d="M296.39,304.62l.35,28.84,1.07-28.25,9.69,24.47-2.15,21.27,3.49-20.14,6.39,12.56s2.33,21.82,2.38,21.81c.08-.02-1.13-19.71-1.13-19.71l9.89,17.34s3.83,14.29,4.04,14.24c.29-.07-2.93-12.83-2.93-12.83l3.08,3.61,7.5,7.95-6-7.35-5.29-7.31-8.54-14.34s15.69,7.57,15.64,7.67c-.04.08-15.93-9.01-15.93-9.01l-9.11-16.63,18.74,10.05-19.03-11.39-4.5-12.24,15.89,5.65-16.35-6.99-4.06-11.08,7.47,1.77-8.09-3.72-2.52,3.76Z"/>
    </g>
    <g id="leaf_c1-38" data-name="leaf_c1">
      <path class="cls-28" d="M314.1,298.78c-5.18,5.07,5.16,38.78,21.35,50.19,24.09,16.98,48.84,22.58,48.84,22.58,0,0,4.82-8.04-27.93-51.23-11.89-15.69-37.15-26.53-42.26-21.54Z"/>
      <path class="cls-30" d="M315.35,305.15l9.37,27.28-7.83-27.17,16.87,20.2,4.63,20.88-2.99-20.22,10,9.92s9.05,20,9.09,19.97c.07-.04-7.25-18.37-7.25-18.37l14.82,13.37s8.12,12.37,8.3,12.26c.26-.16-6.8-11.26-6.8-11.26l4.06,2.46,9.62,5.2-8-5.1-7.32-5.28-12.6-10.95s17.28,2.27,17.26,2.39c-.02.09-17.95-3.56-17.95-3.56l-13.87-12.94,20.95,3.68-21.64-4.85-8.1-10.21,16.86.39-17.72-1.51-7.33-9.25,7.65-.66-8.85-1-1.22,4.36Z"/>
    </g>
    <g id="leaf_c1-39" data-name="leaf_c1">
      <path class="cls-28" d="M329.84,283.42c-4.77,5.46,8.15,38.27,25.17,48.38,25.33,15.06,50.45,18.73,50.45,18.73,0,0,4.18-8.39-31.82-48.91-13.07-14.72-39.1-23.57-43.8-18.19Z"/>
      <path class="cls-30" d="M331.59,289.68l11.46,26.47-9.92-26.48,18.38,18.83,6.23,20.45-4.55-19.93,10.74,9.12s10.57,19.23,10.61,19.2c.06-.05-8.65-17.75-8.65-17.75l15.81,12.18s9.05,11.7,9.22,11.58c.24-.17-7.65-10.7-7.65-10.7l4.24,2.14,9.99,4.43-8.37-4.46-7.7-4.7-13.41-9.94s17.4.93,17.39,1.04c0,.09-18.17-2.16-18.17-2.16l-14.83-11.83,21.17,2.04-21.95-3.16-8.87-9.55,16.84-.92-17.78-.13-8.02-8.65,7.58-1.25-8.9-.31-.87,4.44Z"/>
    </g>
    <g id="leaf_c1-40" data-name="leaf_c1">
      <path class="cls-28" d="M357.02,287.42c-3.56,6.31,15.78,35.8,34.51,42.23,27.87,9.58,53.21,8.05,53.21,8.05,0,0,2.38-9.06-41.12-41.4-15.8-11.74-43.08-15.11-46.59-8.88Z"/>
      <path class="cls-30" d="M360,293.2l16.61,23.58-15.11-23.9,21.83,14.69,10.27,18.75-8.52-18.58,12.37,6.74s14.27,16.68,14.3,16.63c.05-.06-12.09-15.61-12.09-15.61l17.96,8.7s11.25,9.61,11.39,9.45c.2-.22-9.67-8.92-9.67-8.92l4.59,1.23,10.68,2.3-9.11-2.66-8.5-3.03-15.16-6.99s17.22-2.64,17.24-2.53c.01.09-18.23,1.59-18.23,1.59l-16.93-8.55,21.14-2.32-22.13,1.38-10.63-7.54,16.3-4.34-17.44,3.49-9.62-6.84,7.16-2.77-8.77,1.51.05,4.52Z"/>
    </g>
    <g id="leaf_c1-41" data-name="leaf_c1">
      <path class="cls-28" d="M364.63,274.09c-2.73,6.71,20.18,33.52,39.57,37.53,28.86,5.98,53.8,1.25,53.8,1.25,0,0,1.22-9.29-46.03-35.87-17.16-9.65-44.65-9.54-47.34-2.92Z"/>
      <path class="cls-30" d="M368.32,279.44l19.46,21.29-18.01-21.8,23.52,11.81,12.56,17.3-10.8-17.35,13.12,5.12s16.26,14.74,16.29,14.69c.04-.07-13.97-13.96-13.97-13.96l18.92,6.36s12.37,8.11,12.49,7.94c.17-.24-10.72-7.62-10.72-7.62l4.7.64,10.89.93-9.37-1.49-8.82-1.93-15.92-5.02s16.75-4.8,16.78-4.69c.02.09-17.88,3.88-17.88,3.88l-17.87-6.34,20.68-4.97-21.78,4.17-11.5-6.14,15.62-6.36-16.86,5.67-10.4-5.57,6.75-3.65-8.51,2.61.62,4.48Z"/>
    </g>
  </g>
  <g id="flower" class="cls-4">
    <g id="leaf_c1-42" data-name="leaf_c1">
      <path class="cls-25" d="M354.72,215.29c1.78-3.37,20.77-3.54,29.22,2.7,12.58,9.28,19.42,20.67,19.42,20.67,0,0-3.36,3.65-30.81-5.8-9.97-3.43-19.58-14.25-17.83-17.57Z"/>
      <path class="cls-29" d="M358.2,214.91l15.53.36-15.22.39,13.08,5.19,11.48-.99-10.88,1.69,6.7,3.4s11.73,1.34,11.72,1.37c-.01.04-10.6-.71-10.6-.71l9.25,5.25s7.66,2.08,7.63,2.19c-.04.15-6.88-1.6-6.88-1.6l1.91,1.63,4.21,3.95-3.9-3.17-3.89-2.8-7.64-4.53s3.93,8.21,3.99,8.18c.04-.02-4.7-8.34-4.7-8.34l-8.87-4.84,5.24,9.81-5.95-9.97-6.55-2.41,2.89,8.3-3.61-8.55-5.93-2.18.88,3.9-1.93-4.23,2.05-1.29Z"/>
    </g>
    <g id="leaf_c1-43" data-name="leaf_c1">
      <path class="cls-25" d="M354.72,213.49c.06-3.81,16.92-12.55,27.28-10.82,15.42,2.58,26.67,9.65,26.67,9.65,0,0-1.35,4.78-30.1,8.77-10.44,1.45-23.91-3.85-23.85-7.6Z"/>
      <path class="cls-29" d="M357.65,211.57l14.01-6.7-13.4,7.23,14.02-1.29,9.79-6.07-8.94,6.43h7.51s11.07-4.11,11.07-4.08c0,.04-9.78,4.17-9.78,4.17l10.62.5s7.77-1.61,7.79-1.5c.03.15-6.86,1.68-6.86,1.68l2.44.58,5.54,1.62-4.91-1.06-4.73-.74-8.87-.58s7.22,5.54,7.26,5.49c.03-.04-7.96-5.31-7.96-5.31l-10.1-.3,9.11,6.38-9.82-6.19-6.93.81,6.34,6.09-7.09-5.99-6.27.74,2.55,3.08-3.63-2.9,1.24-2.07Z"/>
    </g>
    <g id="leaf_c1-44" data-name="leaf_c1">
      <path class="cls-25" d="M351.72,212.95c-2.61-2.77,3.36-20.8,11.99-26.79,12.84-8.91,25.83-11.7,25.83-11.7,0,0,2.37,4.36-15.44,27.29-6.47,8.33-19.81,13.93-22.39,11.2Z"/>
      <path class="cls-29" d="M352.48,209.54l5.36-14.58-4.55,14.53,9.14-10.71,2.77-11.18-1.91,10.84,5.38-5.25s5.06-10.67,5.08-10.65c.03.02-4.1,9.81-4.1,9.81l7.95-7.05s4.44-6.57,4.54-6.51c.13.09-3.74,5.99-3.74,5.99l2.16-1.29,5.1-2.71-4.26,2.67-3.9,2.77-6.75,5.77s9.04-1.07,9.03-1.13c0-.05-9.41,1.75-9.41,1.75l-7.45,6.83,10.97-1.79-11.35,2.41-4.4,5.42,8.79-.06-9.26.66-3.98,4.91,3.97.42-4.63.46-.56-2.35Z"/>
    </g>
    <g id="leaf_c1-45" data-name="leaf_c1">
      <path class="cls-25" d="M357.41,216.23c-3.48,1.54-18.48-10.12-21.24-20.25-4.11-15.08-2.4-28.26-2.4-28.26,0,0,4.9-.78,20.56,23.67,5.69,8.88,6.51,23.33,3.08,24.84Z"/>
      <path class="cls-29" d="M354.44,214.37l-11.95-9.92,12.18,9.15-7.04-12.19-9.61-6.35,9.58,5.42-3.15-6.82s-8.36-8.33-8.34-8.35c.03-.02,7.88,7.14,7.88,7.14l-3.99-9.85s-4.71-6.38-4.62-6.45c.12-.09,4.4,5.53,4.4,5.53l-.49-2.46-.85-5.71,1.09,4.9,1.31,4.61,3.18,8.29s2.01-8.88,1.95-8.89c-.05-.01-1.49,9.46-1.49,9.46l3.95,9.3,1.98-10.94-1.52,11.51,3.64,5.96,2.88-8.3-2.47,8.94,3.3,5.39,1.73-3.6-1.11,4.51-2.4-.26Z"/>
    </g>
    <g id="leaf_c1-46" data-name="leaf_c1">
      <path class="cls-25" d="M355.35,214.63c-.01,3.81-16.75,12.79-27.13,11.2-15.45-2.36-26.8-9.27-26.8-9.27,0,0,1.28-4.8,29.98-9.19,10.42-1.6,23.96,3.52,23.95,7.27Z"/>
      <path class="cls-29" d="M352.45,216.59l-13.92,6.9,13.3-7.42-14,1.49-9.7,6.21,8.85-6.56-7.51.11s-11.01,4.26-11.02,4.24c0-.04,9.72-4.3,9.72-4.3l-10.62-.35s-7.75,1.72-7.77,1.61c-.04-.15,6.84-1.78,6.84-1.78l-2.45-.55-5.56-1.54,4.93.99,4.74.67,8.87.46s-7.3-5.44-7.33-5.39c-.03.04,8.04,5.2,8.04,5.2l10.11.16-9.2-6.25,9.9,6.06,6.92-.91-6.42-6,7.17,5.89,6.26-.83-2.59-3.04,3.67,2.85-1.21,2.09Z"/>
    </g>
    <g id="leaf_c1-47" data-name="leaf_c1">
      <path class="cls-25" d="M358.76,215.44c2.69,2.69-2.76,20.89-11.21,27.12-12.58,9.28-25.49,12.44-25.49,12.44,0,0-2.5-4.29,14.64-27.72,6.22-8.51,19.4-14.5,22.05-11.84Z"/>
      <path class="cls-29" d="M358.09,218.87l-4.93,14.73,4.13-14.66-8.82,10.97-2.45,11.26,1.6-10.89-5.23,5.4s-4.75,10.81-4.77,10.79c-.03-.02,3.81-9.92,3.81-9.92l-7.75,7.28s-4.25,6.7-4.35,6.64c-.13-.08,3.56-6.1,3.56-6.1l-2.12,1.35-5.02,2.85,4.18-2.79,3.82-2.89,6.58-5.96s-9,1.33-8.99,1.39c0,.05,9.36-2.03,9.36-2.03l7.25-7.04-10.92,2.11,11.28-2.74,4.24-5.54-8.78.31,9.23-.92,3.83-5.02-3.98-.31,4.61-.59.63,2.33Z"/>
    </g>
    <g id="leaf_c1-48" data-name="leaf_c1">
      <path class="cls-25" d="M354.72,207.6c3.7-.91,16.46,13.15,17.44,23.6,1.45,15.56-2.5,28.25-2.5,28.25,0,0-4.97-.08-16.18-26.85-4.07-9.72-2.4-24.1,1.24-25Z"/>
      <path class="cls-29" d="M357.32,209.94l10.07,11.83-10.42-11.1,4.84,13.22,8.37,7.91-8.51-6.99,1.93,7.26s6.81,9.65,6.78,9.66c-.04.02-6.53-8.39-6.53-8.39l2.24,10.39s3.54,7.1,3.45,7.15c-.14.07-3.38-6.2-3.38-6.2l.06,2.51-.15,5.77-.23-5.02-.5-4.76-1.71-8.72s-3.51,8.4-3.45,8.42c.05.02,3.1-9.06,3.1-9.06l-2.29-9.84-3.83,10.44,3.47-11.08-2.56-6.49-4.27,7.68,3.98-8.38-2.32-5.87-2.32,3.25,1.87-4.25,2.32.67Z"/>
    </g>
  </g>
  <g id="flower-2" data-name="flower" class="cls-23">
    <g id="leaf_c1-49" data-name="leaf_c1">
      <path class="cls-25" d="M219.82,216.79c1.55-2.92,18.04-3.07,25.39,2.34,10.93,8.06,16.87,17.96,16.87,17.96,0,0-2.92,3.17-26.77-5.03-8.66-2.98-17.01-12.38-15.49-15.26Z"/>
      <path class="cls-29" d="M222.84,216.46l13.49.31-13.23.33,11.37,4.51,9.97-.86-9.45,1.47,5.82,2.95s10.19,1.17,10.18,1.19c-.01.03-9.21-.62-9.21-.62l8.03,4.56s6.65,1.81,6.63,1.9c-.03.13-5.98-1.39-5.98-1.39l1.66,1.41,3.66,3.43-3.39-2.75-3.38-2.43-6.64-3.93s3.41,7.13,3.46,7.11c.04-.02-4.08-7.24-4.08-7.24l-7.71-4.21,4.55,8.52-5.17-8.66-5.69-2.1,2.51,7.21-3.14-7.43-5.15-1.89.77,3.39-1.67-3.67,1.78-1.12Z"/>
    </g>
    <g id="leaf_c1-50" data-name="leaf_c1">
      <path class="cls-25" d="M219.82,215.22c.06-3.31,14.7-10.9,23.7-9.4,13.39,2.24,23.17,8.38,23.17,8.38,0,0-1.17,4.15-26.15,7.62-9.07,1.26-20.77-3.34-20.72-6.6Z"/>
      <path class="cls-29" d="M222.36,213.56l12.17-5.82-11.64,6.28,12.18-1.12,8.5-5.27-7.76,5.59h6.53s9.61-3.57,9.62-3.55c0,.04-8.49,3.62-8.49,3.62l9.22.43s6.75-1.4,6.77-1.3c.03.13-5.96,1.46-5.96,1.46l2.12.51,4.81,1.41-4.27-.92-4.11-.64-7.7-.5s6.27,4.82,6.3,4.77c.03-.03-6.92-4.61-6.92-4.61l-8.78-.26,7.91,5.54-8.53-5.38-6.02.7,5.5,5.29-6.16-5.2-5.45.64,2.22,2.67-3.16-2.52,1.08-1.8Z"/>
    </g>
    <g id="leaf_c1-51" data-name="leaf_c1">
      <path class="cls-25" d="M217.21,214.76c-2.27-2.41,2.92-18.07,10.42-23.27,11.16-7.74,22.44-10.16,22.44-10.16,0,0,2.06,3.79-13.41,23.71-5.62,7.23-17.21,12.1-19.45,9.73Z"/>
      <path class="cls-29" d="M217.87,211.79l4.65-12.66-3.96,12.62,7.94-9.3,2.41-9.71-1.66,9.42,4.67-4.56s4.4-9.27,4.42-9.25c.03.02-3.56,8.52-3.56,8.52l6.91-6.13s3.86-5.71,3.94-5.66c.11.07-3.25,5.21-3.25,5.21l1.87-1.12,4.43-2.35-3.7,2.32-3.39,2.41-5.87,5.01s7.85-.93,7.84-.98c0-.04-8.18,1.52-8.18,1.52l-6.47,5.93,9.53-1.55-9.86,2.1-3.82,4.7,7.64-.05-8.04.57-3.46,4.26,3.45.37-4.02.4-.48-2.04Z"/>
    </g>
    <g id="leaf_c1-52" data-name="leaf_c1">
      <path class="cls-25" d="M222.16,217.6c-3.03,1.33-16.05-8.79-18.45-17.59-3.57-13.1-2.08-24.55-2.08-24.55,0,0,4.26-.67,17.86,20.56,4.94,7.71,5.66,20.27,2.67,21.58Z"/>
      <path class="cls-29" d="M219.58,215.99l-10.38-8.62,10.58,7.95-6.12-10.59-8.35-5.52,8.32,4.71-2.73-5.93s-7.27-7.24-7.25-7.25c.03-.02,6.84,6.2,6.84,6.2l-3.47-8.56s-4.09-5.55-4.02-5.6c.11-.08,3.82,4.8,3.82,4.8l-.43-2.14-.74-4.96.95,4.26,1.14,4,2.77,7.21s1.75-7.71,1.7-7.72c-.04,0-1.29,8.21-1.29,8.21l3.43,8.08,1.72-9.5-1.32,10,3.16,5.17,2.5-7.21-2.15,7.77,2.86,4.68,1.5-3.13-.97,3.92-2.09-.23Z"/>
    </g>
    <g id="leaf_c1-53" data-name="leaf_c1">
      <path class="cls-25" d="M220.37,216.22c0,3.31-14.55,11.11-23.57,9.73-13.42-2.05-23.28-8.06-23.28-8.06,0,0,1.11-4.17,26.04-7.98,9.05-1.39,20.82,3.05,20.81,6.31Z"/>
      <path class="cls-29" d="M217.85,217.92l-12.09,5.99,11.55-6.44-12.16,1.29-8.43,5.39,7.68-5.7-6.53.09s-9.56,3.7-9.57,3.68c0-.03,8.44-3.74,8.44-3.74l-9.23-.3s-6.73,1.49-6.75,1.4c-.03-.13,5.94-1.55,5.94-1.55l-2.13-.48-4.83-1.34,4.28.86,4.12.58,7.71.4s-6.34-4.73-6.37-4.68c-.02.03,6.98,4.52,6.98,4.52l8.78.14-7.99-5.43,8.6,5.26,6.01-.79-5.58-5.22,6.23,5.12,5.44-.72-2.25-2.64,3.19,2.48-1.05,1.82Z"/>
    </g>
    <g id="leaf_c1-54" data-name="leaf_c1">
      <path class="cls-25" d="M223.33,216.92c2.34,2.34-2.4,18.15-9.74,23.56-10.93,8.06-22.14,10.81-22.14,10.81,0,0-2.17-3.73,12.72-24.08,5.41-7.39,16.85-12.59,19.16-10.29Z"/>
      <path class="cls-29" d="M222.75,219.91l-4.28,12.79,3.59-12.73-7.66,9.53-2.13,9.78,1.39-9.46-4.54,4.69s-4.13,9.39-4.15,9.38c-.03-.02,3.31-8.62,3.31-8.62l-6.73,6.33s-3.69,5.82-3.77,5.77c-.12-.07,3.1-5.3,3.1-5.3l-1.84,1.17-4.36,2.48,3.63-2.43,3.32-2.51,5.72-5.18s-7.82,1.15-7.81,1.21c0,.04,8.13-1.76,8.13-1.76l6.3-6.12-9.48,1.83,9.8-2.38,3.68-4.81-7.63.27,8.02-.8,3.33-4.36-3.46-.27,4.01-.51.54,2.03Z"/>
    </g>
    <g id="leaf_c1-55" data-name="leaf_c1">
      <path class="cls-25" d="M219.82,210.11c3.21-.79,14.3,11.42,15.15,20.5,1.26,13.52-2.17,24.54-2.17,24.54,0,0-4.31-.07-14.06-23.33-3.54-8.45-2.09-20.94,1.08-21.72Z"/>
      <path class="cls-29" d="M222.08,212.14l8.75,10.27-9.05-9.65,4.2,11.48,7.28,6.87-7.39-6.07,1.67,6.31s5.91,8.38,5.89,8.39c-.03.02-5.67-7.28-5.67-7.28l1.94,9.03s3.08,6.17,2.99,6.21c-.12.06-2.94-5.39-2.94-5.39l.05,2.18-.13,5.01-.2-4.36-.43-4.14-1.48-7.57s-3.05,7.29-3,7.31c.04.02,2.69-7.87,2.69-7.87l-1.99-8.55-3.33,9.07,3.02-9.62-2.22-5.64-3.71,6.67,3.45-7.28-2.02-5.1-2.02,2.83,1.63-3.7,2.02.58Z"/>
    </g>
  </g>
  <g id="fila4" class="cls-22">
    <g id="leaf">
      <path class="cls-10" d="M285.54,246.55c-5.34-1.06-22.64,19.88-23.34,34.88-1.03,22.33,5.46,40.19,5.46,40.19,0,0,7.09-.45,21.33-39.44,5.17-14.16,1.82-34.59-3.45-35.63Z"/>
      <path class="cls-26" d="M281.99,250.07l-13.59,17.57,14.15-16.56-6.03,19.21-11.44,11.86,11.68-10.56-2.27,10.5s-9.08,14.24-9.04,14.25c.05.02,8.77-12.42,8.77-12.42l-2.5,15s-4.59,10.38-4.44,10.45c.2.09,4.42-9.08,4.42-9.08l.08,3.59.6,8.23v-7.19s.39-6.84.39-6.84l1.86-12.57s5.58,11.76,5.5,11.8c-.06.03-5.03-12.73-5.03-12.73l2.62-14.21,6.17,14.65-5.7-15.59,3.22-9.45,6.61,10.69-6.24-11.71,2.92-8.55,3.53,4.49-2.96-5.95-3.27,1.11Z"/>
    </g>
    <g id="leaf_c1-56" data-name="leaf_c1">
      <path class="cls-10" d="M229.24,250.79c-2.35-4.91-29.48-6.22-41.91,2.2-18.5,12.54-28.92,28.44-28.92,28.44,0,0,4.6,5.41,44.36-6.54,14.44-4.34,28.79-19.26,26.47-24.1Z"/>
      <path class="cls-26" d="M224.29,250.04l-22.21-.36,21.73,1.41-18.99,6.68-16.34-2.06,15.45,3.03-9.77,4.48s-16.84,1.26-16.83,1.3c.01.06,15.19-.42,15.19-.42l-13.51,6.98s-11.06,2.54-11.03,2.7c.05.22,9.92-1.9,9.92-1.9l-2.83,2.22-6.24,5.41,5.75-4.3,5.71-3.78,11.18-6.04s-6.08,11.51-6.16,11.47c-.06-.03,7.19-11.65,7.19-11.65l12.95-6.42-8.04,13.72,9.07-13.91,9.49-3.08-4.6,11.7,5.64-12.01,8.59-2.78-1.48,5.52,2.99-5.94-2.85-1.96Z"/>
    </g>
    <g id="leaf_c1-57" data-name="leaf_c1">
      <path class="cls-10" d="M253.14,258.69c-3.12-4.46-30.1-1.36-41,8.98-16.22,15.38-23.92,32.76-23.92,32.76,0,0,5.42,4.59,42.71-13.65,13.54-6.63,25.28-23.68,22.21-28.08Z"/>
      <path class="cls-26" d="M248.13,258.76l-21.97,3.25,21.67-2.14-17.66,9.67-16.46.62,15.74.49-8.91,6s-16.41,3.97-16.39,4.01c.02.05,14.92-2.87,14.92-2.87l-12.2,9.08s-10.5,4.3-10.44,4.45c.08.21,9.48-3.48,9.48-3.48l-2.43,2.65-5.28,6.35,4.98-5.18,5.02-4.66,10.05-7.77s-4.13,12.34-4.21,12.31c-.07-.02,5.2-12.66,5.2-12.66l11.74-8.43-5.71,14.84,6.69-15.19,8.87-4.58-2.64,12.29,3.62-12.77,8.03-4.14-.57,5.69,1.99-6.34-3.13-1.47Z"/>
    </g>
    <g id="leaf_c1-58" data-name="leaf_c1">
      <path class="cls-10" d="M275.84,268.42c-3.12-4.46-30.1-1.36-41,8.98-16.22,15.38-23.92,32.76-23.92,32.76,0,0,5.42,4.59,42.71-13.65,13.54-6.63,25.28-23.68,22.21-28.08Z"/>
      <path class="cls-26" d="M270.84,268.5l-21.97,3.25,21.67-2.14-17.66,9.67-16.46.62,15.74.49-8.91,6s-16.41,3.97-16.39,4.01c.02.05,14.92-2.87,14.92-2.87l-12.2,9.08s-10.5,4.3-10.44,4.45c.08.21,9.48-3.48,9.48-3.48l-2.43,2.65-5.28,6.35,4.98-5.18,5.02-4.66,10.05-7.77s-4.13,12.34-4.21,12.31c-.07-.02,5.2-12.66,5.2-12.66l11.74-8.43-5.71,14.84,6.69-15.19,8.87-4.58-2.64,12.29,3.62-12.77,8.03-4.14-.57,5.69,1.99-6.34-3.13-1.47Z"/>
    </g>
    <g id="leaf_c1-59" data-name="leaf_c1">
      <path class="cls-10" d="M299.93,262.35c-5.44.11-17.89,24.25-15.37,39.06,3.75,22.04,13.9,38.1,13.9,38.1,0,0,6.83-1.95,12.43-43.08,2.03-14.94-5.59-34.18-10.96-34.08Z"/>
      <path class="cls-26" d="M297.21,266.55l-9.54,20.06,10.29-19.19-1.8,20.05-8.65,14.02,9.17-12.8.03,10.75s-5.84,15.84-5.8,15.85c.06.01,5.92-14,5.92-14l.75,15.18s-2.27,11.12-2.12,11.15c.22.05,2.38-9.82,2.38-9.82l.85,3.49,2.34,7.92-1.53-7.02-1.07-6.76-.86-12.68s7.95,10.3,7.88,10.36c-.06.04-7.62-11.37-7.62-11.37l-.47-14.45,9.15,13-8.89-14.02,1.13-9.91,8.74,9.04-8.59-10.11,1.03-8.97,4.41,3.64-4.16-5.18-2.96,1.78Z"/>
    </g>
    <g id="leaf_c1-60" data-name="leaf_c1">
      <path class="cls-10" d="M304.43,255.71c-3.06,4.5,9.45,28.61,22.99,35.11,20.15,9.68,39.13,10.68,39.13,10.68,0,0,2.36-6.7-27.97-35.04-11.02-10.29-31.13-15.19-34.15-10.75Z"/>
      <path class="cls-26" d="M306.28,260.36l10.86,19.38-9.72-19.49,15.32,13.05,6.45,15.16-5.15-14.88,8.78,6.19s9.56,13.92,9.59,13.89c.04-.04-8-12.92-8-12.92l12.83,8.16s7.76,8.28,7.88,8.17c.17-.15-6.63-7.62-6.63-7.62l3.34,1.33,7.81,2.67-6.62-2.81-6.14-3.03-10.84-6.62s13-.54,13.01-.45c0,.07-13.69-.35-13.69-.35l-12.06-7.96,15.9.04-16.58-.84-7.44-6.65,12.42-1.91-13.22,1.17-6.73-6.03,5.52-1.5-6.64.4-.26,3.45Z"/>
    </g>
    <g id="leaf_c1-61" data-name="leaf_c1">
      <path class="cls-10" d="M334.95,253.2c-2.14,5.01,14.78,26.26,29.32,30.03,21.63,5.62,40.45,2.95,40.45,2.95,0,0,1.03-7.03-34.19-29.01-12.79-7.98-33.47-8.92-35.58-3.98Z"/>
      <path class="cls-26" d="M337.66,257.41l14.38,16.92-13.28-17.26,17.55,9.86,9.24,13.64-7.92-13.61,9.81,4.38s12.06,11.82,12.08,11.79c.03-.05-10.34-11.14-10.34-11.14l14.16,5.54s9.21,6.63,9.3,6.5c.13-.18-7.98-6.2-7.98-6.2l3.53.66,8.18,1.12-7.03-1.48-6.61-1.8-11.91-4.41s12.66-3.03,12.68-2.94c.02.07-13.5,2.29-13.5,2.29l-13.37-5.49,15.61-3.02-16.43,2.36-8.58-5.1,11.83-4.26-12.75,3.69-7.76-4.62,5.12-2.53-6.43,1.67.41,3.43Z"/>
    </g>
    <g id="leaf_c1-62" data-name="leaf_c1">
      <path class="cls-10" d="M364.39,248.34c-1.62,5.2,17.37,24.62,32.21,26.9,22.09,3.39,40.54-1.17,40.54-1.17,0,0,.31-7.09-36.96-25.39-13.53-6.64-34.2-5.47-35.8-.35Z"/>
      <path class="cls-26" d="M367.51,252.25l16.03,15.38-14.97-15.82,18.46,8.03,10.58,12.63-9.26-12.74,10.21,3.37s13.19,10.53,13.21,10.5c.03-.05-11.42-10.03-11.42-10.03l14.65,4.08s9.83,5.66,9.92,5.53c.11-.19-8.56-5.36-8.56-5.36l3.58.3,8.25.28-7.15-.76-6.76-1.12-12.3-3.18s12.29-4.3,12.31-4.21c.02.07-13.19,3.65-13.19,3.65l-13.86-4.11,15.23-4.59-16.11,4.02-9.05-4.2,11.33-5.44-12.31,4.96-8.19-3.81,4.84-3.04-6.23,2.31.76,3.37Z"/>
    </g>
    <g id="leaf_c1-63" data-name="leaf_c1">
      <path class="cls-10" d="M286.17,249.86c-4.16,3.52,1.43,30.1,12.73,39.99,16.81,14.73,34.83,20.78,34.83,20.78,0,0,4.07-5.82-17.55-41.26-7.85-12.87-25.91-22.98-30.01-19.52Z"/>
      <path class="cls-26" d="M286.7,254.84l5.27,21.58-4.13-21.38,11.26,16.68,2.14,16.33-.97-15.71,6.8,8.32s5.47,15.97,5.51,15.95c.05-.03-4.24-14.59-4.24-14.59l10.17,11.3s5.26,10.06,5.4,9.99c.2-.1-4.35-9.12-4.35-9.12l2.86,2.17,6.81,4.67-5.62-4.48-5.1-4.57-8.67-9.29s12.67,2.97,12.65,3.06c-.02.07-13.09-4.01-13.09-4.01l-9.48-10.91,15.31,4.31-15.75-5.26-5.38-8.4,12.48,1.5-13.05-2.42-4.86-7.61,5.71.04-6.5-1.39-1.17,3.25Z"/>
    </g>
  </g>
  <g id="leaf_c1-64" data-name="leaf_c1" class="cls-21">
    <path class="cls-28" d="M283.24,221.06c3.57,2.85-1.84,21.9-11.92,28.36-15,9.62-30.89,12.82-30.89,12.82,0,0-3.45-4.53,16.16-28.96,7.12-8.87,23.13-15.03,26.64-12.22Z"/>
    <path class="cls-30" d="M282.67,224.66l-5.03,15.41,4.03-15.34-10.18,11.43-2.19,11.79,1.16-11.42-6.11,5.62s-5.1,11.3-5.13,11.28c-.04-.02,4-10.38,4-10.38l-9.12,7.57s-4.79,6.99-4.92,6.93c-.17-.09,3.98-6.37,3.98-6.37l-2.54,1.39-6.05,2.95,5.01-2.89,4.55-2.99,7.77-6.2s-11.15,1.31-11.13,1.37c.01.05,11.53-2.04,11.53-2.04l8.51-7.32-13.48,2.11,13.88-2.77,4.87-5.78-10.95.24,11.47-.88,4.4-5.23-5-.36,5.72-.58.96,2.46Z"/>
  </g>
  <g id="leaf_c1-65" data-name="leaf_c1" class="cls-15">
    <path class="cls-28" d="M302.07,203.63c3.68-3.54,27.21,4.45,34.9,16.08,11.45,17.32,14.88,34.87,14.88,34.87,0,0-5.76,3.23-35.5-20.74-10.8-8.7-17.91-26.72-14.28-30.22Z"/>
    <path class="cls-30" d="M306.54,204.64l19.02,7.17-18.97-6.09,13.87,12.3,14.61,3.7-14.18-2.53,6.78,7.25s13.89,6.79,13.87,6.82c-.03.05-12.78-5.49-12.78-5.49l9.11,10.72s8.54,5.97,8.46,6.1c-.11.18-7.79-5.03-7.79-5.03l1.65,2.91,3.46,6.88-3.43-5.74-3.57-5.26-7.45-9.1s1.24,12.22,1.32,12.2c.06,0-2.13-12.72-2.13-12.72l-8.82-10.04,2.15,14.83-2.96-15.34-7.02-5.92-.08,11.88-.7-12.51-6.36-5.35-.62,5.38-.52-6.25,3.09-.77Z"/>
  </g>
  <g id="flower-3" data-name="flower" class="cls-18">
    <g id="leaf_c1-66" data-name="leaf_c1">
      <path class="cls-25" d="M293.47,283.53c1.78-3.37,20.77-3.54,29.22,2.7,12.58,9.28,19.42,20.67,19.42,20.67,0,0-3.36,3.65-30.81-5.8-9.97-3.43-19.58-14.25-17.83-17.57Z"/>
      <path class="cls-29" d="M296.95,283.15l15.53.36-15.22.39,13.08,5.19,11.48-.99-10.88,1.69,6.7,3.4s11.73,1.34,11.72,1.37c-.01.04-10.6-.71-10.6-.71l9.25,5.25s7.66,2.08,7.63,2.19c-.04.15-6.88-1.6-6.88-1.6l1.91,1.63,4.21,3.95-3.9-3.17-3.89-2.8-7.64-4.53s3.93,8.21,3.99,8.18c.04-.02-4.7-8.34-4.7-8.34l-8.87-4.84,5.24,9.81-5.95-9.97-6.55-2.41,2.89,8.3-3.61-8.55-5.93-2.18.88,3.9-1.93-4.23,2.05-1.29Z"/>
    </g>
    <g id="leaf_c1-67" data-name="leaf_c1">
      <path class="cls-25" d="M293.47,281.73c.06-3.81,16.92-12.55,27.28-10.82,15.42,2.58,26.67,9.65,26.67,9.65,0,0-1.35,4.78-30.1,8.77-10.44,1.45-23.91-3.85-23.85-7.6Z"/>
      <path class="cls-29" d="M296.4,279.82l14.01-6.7-13.4,7.23,14.02-1.29,9.79-6.07-8.94,6.43h7.51s11.07-4.11,11.07-4.08c0,.04-9.78,4.17-9.78,4.17l10.62.5s7.77-1.61,7.79-1.5c.03.15-6.86,1.68-6.86,1.68l2.44.58,5.54,1.62-4.91-1.06-4.73-.74-8.87-.58s7.22,5.54,7.26,5.49c.03-.04-7.96-5.31-7.96-5.31l-10.1-.3,9.11,6.38-9.82-6.19-6.93.81,6.34,6.09-7.09-5.99-6.27.74,2.55,3.08-3.63-2.9,1.24-2.07Z"/>
    </g>
    <g id="leaf_c1-68" data-name="leaf_c1">
      <path class="cls-25" d="M290.47,281.2c-2.61-2.77,3.36-20.8,11.99-26.79,12.84-8.91,25.83-11.7,25.83-11.7,0,0,2.37,4.36-15.44,27.29-6.47,8.33-19.81,13.93-22.39,11.2Z"/>
      <path class="cls-29" d="M291.23,277.78l5.36-14.58-4.55,14.53,9.14-10.71,2.77-11.18-1.91,10.84,5.38-5.25s5.06-10.67,5.08-10.65c.03.02-4.1,9.81-4.1,9.81l7.95-7.05s4.44-6.57,4.54-6.51c.13.09-3.74,5.99-3.74,5.99l2.16-1.29,5.1-2.71-4.26,2.67-3.9,2.77-6.75,5.77s9.04-1.07,9.03-1.13c0-.05-9.41,1.75-9.41,1.75l-7.45,6.83,10.97-1.79-11.35,2.41-4.4,5.42,8.79-.06-9.26.66-3.98,4.91,3.97.42-4.63.46-.56-2.35Z"/>
    </g>
    <g id="leaf_c1-69" data-name="leaf_c1">
      <path class="cls-25" d="M296.16,284.47c-3.48,1.54-18.48-10.12-21.24-20.25-4.11-15.08-2.4-28.26-2.4-28.26,0,0,4.9-.78,20.56,23.67,5.69,8.88,6.51,23.33,3.08,24.84Z"/>
      <path class="cls-29" d="M293.2,282.61l-11.95-9.92,12.18,9.15-7.04-12.19-9.61-6.35,9.58,5.42-3.15-6.82s-8.36-8.33-8.34-8.35c.03-.02,7.88,7.14,7.88,7.14l-3.99-9.85s-4.71-6.38-4.62-6.45c.12-.09,4.4,5.53,4.4,5.53l-.49-2.46-.85-5.71,1.09,4.9,1.31,4.61,3.18,8.29s2.01-8.88,1.95-8.89c-.05-.01-1.49,9.46-1.49,9.46l3.95,9.3,1.98-10.94-1.52,11.51,3.64,5.96,2.88-8.3-2.47,8.94,3.3,5.39,1.73-3.6-1.11,4.51-2.4-.26Z"/>
    </g>
    <g id="leaf_c1-70" data-name="leaf_c1">
      <path class="cls-25" d="M294.1,282.88c-.01,3.81-16.75,12.79-27.13,11.2-15.45-2.36-26.8-9.27-26.8-9.27,0,0,1.28-4.8,29.98-9.19,10.42-1.6,23.96,3.52,23.95,7.27Z"/>
      <path class="cls-29" d="M291.2,284.83l-13.92,6.9,13.3-7.42-14,1.49-9.7,6.21,8.85-6.56-7.51.11s-11.01,4.26-11.02,4.24c0-.04,9.72-4.3,9.72-4.3l-10.62-.35s-7.75,1.72-7.77,1.61c-.04-.15,6.84-1.78,6.84-1.78l-2.45-.55-5.56-1.54,4.93.99,4.74.67,8.87.46s-7.3-5.44-7.33-5.39c-.03.04,8.04,5.2,8.04,5.2l10.11.16-9.2-6.25,9.9,6.06,6.92-.91-6.42-6,7.17,5.89,6.26-.83-2.59-3.04,3.67,2.85-1.21,2.09Z"/>
    </g>
    <g id="leaf_c1-71" data-name="leaf_c1">
      <path class="cls-25" d="M297.51,283.68c2.69,2.69-2.76,20.89-11.21,27.12-12.58,9.28-25.49,12.44-25.49,12.44,0,0-2.5-4.29,14.64-27.72,6.22-8.51,19.4-14.5,22.05-11.84Z"/>
      <path class="cls-29" d="M296.85,287.12l-4.93,14.73,4.13-14.66-8.82,10.97-2.45,11.26,1.6-10.89-5.23,5.4s-4.75,10.81-4.77,10.79c-.03-.02,3.81-9.92,3.81-9.92l-7.75,7.28s-4.25,6.7-4.35,6.64c-.13-.08,3.56-6.1,3.56-6.1l-2.12,1.35-5.02,2.85,4.18-2.79,3.82-2.89,6.58-5.96s-9,1.33-8.99,1.39c0,.05,9.36-2.03,9.36-2.03l7.25-7.04-10.92,2.11,11.28-2.74,4.24-5.54-8.78.31,9.23-.92,3.83-5.02-3.98-.31,4.61-.59.63,2.33Z"/>
    </g>
    <g id="leaf_c1-72" data-name="leaf_c1">
      <path class="cls-25" d="M293.47,275.84c3.7-.91,16.46,13.15,17.44,23.6,1.45,15.56-2.5,28.25-2.5,28.25,0,0-4.97-.08-16.18-26.85-4.07-9.72-2.4-24.1,1.24-25Z"/>
      <path class="cls-29" d="M296.07,278.19l10.07,11.83-10.42-11.1,4.84,13.22,8.37,7.91-8.51-6.99,1.93,7.26s6.81,9.65,6.78,9.66c-.04.02-6.53-8.39-6.53-8.39l2.24,10.39s3.54,7.1,3.45,7.15c-.14.07-3.38-6.2-3.38-6.2l.06,2.51-.15,5.77-.23-5.02-.5-4.76-1.71-8.72s-3.51,8.4-3.45,8.42c.05.02,3.1-9.06,3.1-9.06l-2.29-9.84-3.83,10.44,3.47-11.08-2.56-6.49-4.27,7.68,3.98-8.38-2.32-5.87-2.32,3.25,1.87-4.25,2.32.67Z"/>
    </g>
  </g>
  <g id="leaf_c1-73" data-name="leaf_c1" class="cls-24">
    <path class="cls-28" d="M294.88,200.41c5.1-.28,17.71,21.13,15.94,34.97-2.63,20.6-11.49,36.13-11.49,36.13,0,0-6.47-1.32-13.36-38.89-2.5-13.64,3.87-31.94,8.9-32.22Z"/>
    <path class="cls-30" d="M297.6,204.09l9.73,17.85-10.4-16.99,2.48,18.38,8.65,12.33-9.09-11.17.41,9.92s6.09,14.21,6.06,14.22c-.05.01-6.1-12.5-6.1-12.5l-.1,14.06s2.57,10.1,2.43,10.14c-.2.06-2.62-8.89-2.62-8.89l-.65,3.28-1.87,7.47,1.15-6.59.73-6.32.3-11.76s-7.04,10.06-6.97,10.11c.05.03,6.68-11.03,6.68-11.03l-.13-13.36-8.05,12.64,7.77-13.56-1.45-9.07-7.82,8.95,7.64-9.93-1.33-8.21-3.98,3.66,3.69-5.07,2.84,1.44Z"/>
  </g>
  <g id="ramillete">
    <g id="leaf_c1-74" data-name="leaf_c1" class="cls-16">
      <path class="cls-28" d="M295.05,163.11c2.97,4.93-11.68,28.78-26.39,34.33-21.89,8.25-42.03,7.64-42.03,7.64,0,0-2.1-7.14,31.66-33.82,12.26-9.69,33.83-13,36.77-8.14Z"/>
      <path class="cls-30" d="M292.82,167.76l-12.63,19.1,11.43-19.32-16.98,12.17-7.71,15.12,6.33-14.95-9.66,5.64s-10.93,13.57-10.96,13.54c-.04-.05,9.23-12.67,9.23-12.67l-14.05,7.33s-8.7,7.89-8.82,7.77c-.17-.17,7.47-7.3,7.47-7.3l-3.61,1.08-8.42,2.08,7.17-2.33,6.67-2.6,11.86-5.91s-13.73-1.69-13.74-1.6c0,.07,14.5.83,14.5.83l13.23-7.19-16.83-1.34,17.6.58,8.26-6.24-13.04-3.06,13.92,2.36,7.47-5.65-5.75-2.03,7,.99.07,3.59Z"/>
    </g>
    <g id="leaf_c1-75" data-name="leaf_c1" class="cls-20">
      <path class="cls-28" d="M292.55,170.67c4.76,3.23,1.41,31.03-9.64,42.21-16.44,16.65-35,24.5-35,24.5,0,0-4.89-5.61,14.63-43.95,7.09-13.93,25.31-25.95,30-22.76Z"/>
      <path class="cls-30" d="M292.47,175.83l-3.49,22.63,2.31-22.33-10.34,18.15-.69,16.96-.5-16.22-6.42,9.16s-4.26,16.89-4.3,16.88c-.06-.02,3.09-15.37,3.09-15.37l-9.71,12.53s-4.61,10.8-4.76,10.74c-.22-.09,3.73-9.76,3.73-9.76l-2.83,2.49-6.78,5.41,5.54-5.11,4.98-5.16,8.31-10.32s-13.18,4.2-13.15,4.29c.02.07,13.53-5.3,13.53-5.3l9.02-12.06-15.85,5.81,16.23-6.83,4.9-9.12-13.12,2.67,13.63-3.67,4.43-8.26-6.07.56,6.77-2.02,1.56,3.23Z"/>
    </g>
    <g id="leaf_c1-76" data-name="leaf_c1" class="cls-19">
      <path class="cls-28" d="M298.11,172.35c5.58,1.42,11.89,28.7,5.31,42.97-9.79,21.25-24.57,34.95-24.57,34.95,0,0-6.51-3.6-1.2-46.31,1.93-15.51,14.96-33.01,20.46-31.61Z"/>
      <path class="cls-30" d="M299.79,177.22l4.42,22.47-5.43-21.78-3.55,20.59,5.13,16.18-5.99-15.08-2.92,10.8s1.74,17.34,1.7,17.33c-.06,0-2.33-15.5-2.33-15.5l-4.86,15.08s-.65,11.73-.82,11.72c-.24,0,.19-10.44.19-10.44l-1.81,3.31-4.54,7.4,3.47-6.69,2.92-6.54,4.3-12.54s-10.96,8.44-10.91,8.51c.05.06,10.91-9.59,10.91-9.59l4.38-14.41-12.93,10.86,12.93-11.94,1.5-10.24-11.43,6.98,11.57-8.09,1.35-9.27-5.52,2.59,5.68-4.21,2.57,2.51Z"/>
    </g>
    <g id="leaf_c1-77" data-name="leaf_c1" class="cls-17">
      <path class="cls-28" d="M292.22,165.76c5.43-1.91,25.8,17.3,28.23,32.83,3.62,23.11-1.09,42.71-1.09,42.71,0,0-7.42.61-26.66-37.89-6.99-13.98-5.83-35.77-.48-37.65Z"/>
      <path class="cls-30" d="M296.32,168.89l16.13,16.26-16.59-15.12,8.45,19.11,13.24,10.63-13.34-9.24,3.55,10.61s11.06,13.47,11.02,13.49c-.05.03-10.53-11.62-10.53-11.62l4.31,15.25s5.95,10.12,5.81,10.22c-.2.13-5.63-8.8-5.63-8.8l.32,3.76.32,8.67-.82-7.49-1.19-7.07-3.36-12.82s-4.45,13.1-4.37,13.12c.07.02,3.77-14.03,3.77-14.03l-4.34-14.42-4.74,16.2,4.15-17.11-4.42-9.36-5.65,12.14,5.15-13.15-4.01-8.47-3.16,5.22,2.4-6.65,3.53.66Z"/>
    </g>
    <g id="leaf_c1-78" data-name="leaf_c1" class="cls-13">
      <path class="cls-28" d="M306.51,165.77c4.96-2.92,28.66,11.97,34.06,26.73,8.04,21.97,7.22,42.11,7.22,42.11,0,0-7.16,2.03-33.5-31.99-9.57-12.36-12.66-33.96-7.78-36.85Z"/>
      <path class="cls-30" d="M311.14,168.05l18.98,12.82-19.21-11.62,12,17.1,15.05,7.86-14.88-6.47,5.54,9.72s13.46,11.07,13.43,11.09c-.05.04-12.58-9.35-12.58-9.35l7.19,14.12s7.8,8.78,7.68,8.89c-.17.16-7.23-7.54-7.23-7.54l1.05,3.62,2,8.44-2.26-7.19-2.54-6.7-5.79-11.92s-1.83,13.71-1.74,13.72c.07,0,.98-14.49.98-14.49l-7.05-13.3-1.51,16.82.75-17.59-6.15-8.32-3.19,13.01,2.5-13.9-5.58-7.53-2.09,5.73,1.06-6.99,3.59-.03Z"/>
    </g>
    <g id="leaf_c1-79" data-name="leaf_c1" class="cls-14">
      <path class="cls-28" d="M296.61,162.14c3.05-4.88,30.95-2.6,42.55,8.01,17.26,15.79,25.83,34.03,25.83,34.03,0,0-5.41,5.1-44.48-12.94-14.19-6.55-26.9-24.29-23.9-29.11Z"/>
      <path class="cls-30" d="M301.77,162.03l22.75,2.62-22.4-1.45,18.54,9.64,16.98.04-16.19,1.12,9.4,6.06s17.05,3.61,17.03,3.65c-.02.06-15.48-2.5-15.48-2.5l12.89,9.22s10.97,4.19,10.92,4.35c-.08.23-9.89-3.36-9.89-3.36l2.6,2.73,5.67,6.57-5.32-5.34-5.34-4.77-10.63-7.91s4.7,13.01,4.79,12.98c.07-.03-5.82-13.31-5.82-13.31l-12.4-8.55,6.42,15.62-7.45-15.95-9.3-4.55,3.17,13.01-4.19-13.48-8.42-4.11.79,6.05-2.28-6.69,3.17-1.68Z"/>
    </g>
  </g>
  <g id="punta" class="cls-12">
    <g id="leaf_c1-80" data-name="leaf_c1">
      <path class="cls-10" d="M296.25,112.67c-5.97.5-17.94,27.89-14.13,43.97,5.66,23.94,17.94,40.87,17.94,40.87,0,0,7.36-2.62,10.63-48.18,1.18-16.55-8.54-37.15-14.43-36.66Z"/>
      <path class="cls-26" d="M293.55,117.47l-9.06,22.7,9.95-21.8-.56,22.14-8.51,16.01,9.17-14.7.78,11.8s-5.29,17.81-5.25,17.81c.06,0,5.52-15.79,5.52-15.79l1.89,16.62s-1.71,12.37-1.54,12.4c.24.04,1.93-10.95,1.93-10.95l1.17,3.77,3.12,8.53-2.18-7.6-1.65-7.35-1.84-13.86s9.46,10.76,9.38,10.82c-.06.05-9.17-11.95-9.17-11.95l-1.53-15.83,10.97,13.64-10.75-14.77.55-10.97,10.23,9.31-10.15-10.5.5-9.93,5.1,3.68-4.94-5.4-3.13,2.17Z"/>
    </g>
    <g id="leaf_c1-81" data-name="leaf_c1">
      <path class="cls-10" d="M315.23,147.02c4.9-1.58,9.58-26.82,3.26-39.53-9.39-18.92-22.96-30.69-22.96-30.69,0,0-5.65,3.62.49,42.37,2.23,14.07,14.38,29.41,19.2,27.85Z"/>
      <path class="cls-26" d="M316.55,142.48l3.16-20.75-4.08,20.17-3.84-18.63,4-15.04-4.8,14.08-2.95-9.72s.96-15.93.92-15.92c-.06,0-1.54,14.28-1.54,14.28l-4.82-13.53s-.97-10.68-1.12-10.67c-.21.02.52,9.53.52,9.53l-1.72-2.93-4.27-6.53,3.3,5.94,2.81,5.83,4.23,11.23s-10-7.15-9.95-7.22c.04-.05,10,8.21,10,8.21l4.36,12.94-11.83-9.27,11.87,10.26,1.68,9.28-10.37-5.8,10.53,6.81,1.51,8.4-4.98-2.09,5.18,3.56,2.19-2.42Z"/>
    </g>
    <g id="leaf_c1-82" data-name="leaf_c1">
      <path class="cls-10" d="M272,136.29c4.76,1.95,24.61-14.31,27.99-28.1,5.02-20.52,2.26-38.26,2.26-38.26,0,0-6.65-.88-26.96,32.69-7.37,12.19-7.98,31.74-3.29,33.67Z"/>
      <path class="cls-26" d="M275.94,133.68l15.8-13.82-16.13,12.78,9.09-16.71,12.76-8.91-12.75,7.66,4.01-9.33s11.01-11.55,10.98-11.57c-.05-.03-10.39,9.92-10.39,9.92l5.05-13.45s6.14-8.79,6.02-8.88c-.17-.12-5.75,7.62-5.75,7.62l.58-3.34.95-7.74-1.31,6.66-1.61,6.27-4.01,11.32s-3.03-11.92-2.95-11.94c.06-.02,2.34,12.72,2.34,12.72l-5.01,12.7-3.06-14.71,2.45,15.49-4.7,8.17-4.18-11.12,3.65,12-4.26,7.39-2.46-4.81,1.66,6.06,3.24-.44Z"/>
    </g>
    <g id="leaf_c1-83" data-name="leaf_c1">
      <path class="cls-10" d="M295.6,141.61c-4.16,3.52,1.43,30.1,12.73,39.99,16.81,14.73,34.83,20.78,34.83,20.78,0,0,4.07-5.82-17.55-41.26-7.85-12.87-25.91-22.98-30.01-19.52Z"/>
      <path class="cls-26" d="M296.13,146.59l5.27,21.58-4.13-21.38,11.26,16.68,2.14,16.33-.97-15.71,6.8,8.32s5.47,15.97,5.51,15.95c.05-.03-4.24-14.59-4.24-14.59l10.17,11.3s5.26,10.06,5.4,9.99c.2-.1-4.35-9.12-4.35-9.12l2.86,2.17,6.81,4.67-5.62-4.48-5.1-4.57-8.67-9.29s12.67,2.97,12.65,3.06c-.02.07-13.09-4.01-13.09-4.01l-9.48-10.91,15.31,4.31-15.75-5.26-5.38-8.4,12.48,1.5-13.05-2.42-4.86-7.61,5.71.04-6.5-1.39-1.17,3.25Z"/>
    </g>
    <g id="leaf_c1-84" data-name="leaf_c1">
      <path class="cls-10" d="M290.98,111.32c3.02,4.53-9.7,28.53-23.29,34.91-20.23,9.5-39.22,10.34-39.22,10.34,0,0-2.3-6.72,28.27-34.8,11.1-10.2,31.26-14.92,34.24-10.45Z"/>
      <path class="cls-26" d="M289.09,115.96l-11.03,19.28,9.88-19.41-15.44,12.92-6.58,15.1,5.28-14.83-8.84,6.11s-9.68,13.84-9.71,13.81c-.04-.04,8.11-12.85,8.11-12.85l-12.9,8.05s-7.83,8.21-7.95,8.1c-.16-.15,6.7-7.56,6.7-7.56l-3.35,1.3-7.84,2.6,6.64-2.75,6.17-2.98,10.9-6.53s-13-.65-13-.56c0,.07,13.69-.23,13.69-.23l12.13-7.86-15.9-.09,16.59-.7,7.49-6.59-12.41-2.01,13.21,1.28,6.78-5.97-5.5-1.54,6.63.46.23,3.45Z"/>
    </g>
    <g id="leaf_c1-85" data-name="leaf_c1">
      <path class="cls-10" d="M287.39,146.77c2.12,5.01-14.84,26.22-29.39,29.96-21.65,5.57-40.46,2.86-40.46,2.86,0,0-1.01-7.03,34.26-28.92,12.81-7.95,33.49-8.84,35.59-3.9Z"/>
      <path class="cls-26" d="M284.67,150.98l-14.43,16.89,13.33-17.23-17.57,9.82-9.27,13.61,7.95-13.59-9.82,4.36s-12.08,11.79-12.11,11.76c-.03-.05,10.37-11.12,10.37-11.12l-14.17,5.51s-9.22,6.61-9.32,6.48c-.13-.18,7.99-6.18,7.99-6.18l-3.53.65-8.18,1.1,7.04-1.47,6.61-1.78,11.93-4.38s-12.65-3.06-12.67-2.97c-.02.07,13.49,2.32,13.49,2.32l13.38-5.46-15.61-3.05,16.43,2.4,8.59-5.08-11.82-4.29,12.74,3.72,7.77-4.6-5.12-2.54,6.43,1.69-.42,3.43Z"/>
    </g>
    <g id="leaf_c1-86" data-name="leaf_c1">
      <path class="cls-10" d="M304.2,141.84c-2.5,4.84,12.82,27.27,27.04,32.1,21.16,7.19,40.13,5.9,40.13,5.9,0,0,1.54-6.93-31.98-31.43-12.17-8.9-32.73-11.34-35.19-6.57Z"/>
      <path class="cls-26" d="M306.6,146.24l13.11,17.93-11.99-18.18,16.78,11.12,8.22,14.28-6.9-14.15,9.46,5.09s11.16,12.67,11.19,12.64c.04-.05-9.5-11.87-9.5-11.87l13.71,6.56s8.7,7.29,8.8,7.17c.15-.17-7.5-6.77-7.5-6.77l3.47.92,8.08,1.71-6.9-1.99-6.46-2.28-11.56-5.27s12.85-2.1,12.86-2.01c.01.07-13.63,1.3-13.63,1.3l-12.93-6.46,15.79-1.87-16.56,1.16-8.18-5.71,12.11-3.38-12.98,2.75-7.4-5.18,5.3-2.15-6.54,1.2.16,3.45Z"/>
    </g>
    <g id="leaf_c1-87" data-name="leaf_c1">
      <path class="cls-10" d="M291.92,131.25c4.42,3.18.95,30.12-9.53,40.87-15.6,16.01-33.08,23.47-33.08,23.47,0,0-4.52-5.48,14.23-42.52,6.81-13.45,24.02-24.96,28.38-21.83Z"/>
      <path class="cls-26" d="M291.78,136.26l-3.54,21.93,2.43-21.64-9.91,17.52-.85,16.45-.27-15.74-6.12,8.83s-4.2,16.35-4.23,16.34c-.05-.02,3.08-14.88,3.08-14.88l-9.24,12.07s-4.44,10.44-4.59,10.38c-.21-.08,3.61-9.43,3.61-9.43l-2.68,2.39-6.42,5.19,5.25-4.91,4.72-4.96,7.91-9.94s-12.4,3.96-12.37,4.05c.02.07,12.73-5.03,12.73-5.03l8.59-11.62-14.92,5.5,15.28-6.49,4.7-8.8-12.32,2.48,12.82-3.44,4.25-7.97-5.69.49,6.37-1.9,1.42,3.15Z"/>
    </g>
    <g id="leaf_c1-88" data-name="leaf_c1">
      <path class="cls-10" d="M295.24,102.94c-3.21,4.4,8.5,28.91,21.81,35.86,19.82,10.34,38.75,11.98,38.75,11.98,0,0,2.58-6.62-26.79-35.95-10.67-10.65-30.61-16.22-33.77-11.88Z"/>
      <path class="cls-26" d="M296.94,107.65l10.21,19.73-9.06-19.8,14.88,13.56,5.94,15.37-4.65-15.04,8.57,6.48s9.09,14.23,9.12,14.2c.04-.04-7.57-13.18-7.57-13.18l12.55,8.58s7.48,8.53,7.6,8.43c.17-.14-6.38-7.84-6.38-7.84l3.29,1.44,7.72,2.93-6.52-3.03-6.03-3.24-10.62-6.98s13.02-.1,13.01-.02c0,.07-13.67-.8-13.67-.8l-11.79-8.36,15.89.57-16.54-1.39-7.21-6.9,12.48-1.49-13.25.73-6.52-6.25,5.56-1.31-6.65.18-.37,3.44Z"/>
    </g>
  </g>
</svg>